<svg width="84" height="62" fill="none" version="1.1" viewBox="0 0 84 62" xmlns="http://www.w3.org/2000/svg">
 <path d="m81.882 22.313-27.427-20.683c-0.7305-0.55083-1.7367-0.55083-2.4673 0l-4.5088 3.4001-4.5087-3.4001c-0.7306-0.55083-1.7368-0.55083-2.4674 0l-4.3963 3.3152-4.3964-3.3152c-0.7306-0.55083-1.7368-0.55083-2.4674 0l-27.427 20.683c-0.51307 0.3872-0.81483 0.9931-0.81483 1.6358v34.822c0 1.1315 0.91727 2.0488 2.0488 2.0488h77.599c1.1315 0 2.0488-0.9173 2.0488-2.0488v-34.822c0-0.6427-0.3018-1.2486-0.8151-1.6358zm-3.2825 34.41h-7.3867v-32.774c0-0.643-0.3018-1.2486-0.8151-1.6358l-19.516-14.717 2.3394-1.7643 25.378 19.138v31.752zm-18.647-32.774v32.774h7.1625v-31.752l-25.379-19.138-2.2273 1.6794 19.628 14.801c0.5133 0.3872 0.8151 0.9928 0.8151 1.6358zm-26.121 32.774h-6.7106v-14.857h6.7106v14.857zm4.0976-16.905v16.905h17.926v-31.753l-25.379-19.138-25.379 19.138v31.753h17.926v-16.905c0-1.1315 0.9173-2.0488 2.0488-2.0488h10.808c1.1315 0 2.0488 0.9173 2.0488 2.0488z" clip-rule="evenodd" fill="#FFA600" fill-rule="evenodd" style="fill:#919191"/>
 <path d="m54.454 1.6306 0.3011-0.39921v-2e-5l-0.3011 0.39923zm27.427 20.683 0.3011-0.3992h-1e-4l-0.301 0.3992zm-29.895-20.683-0.301-0.39923v2e-5l0.301 0.39921zm-4.5088 3.4001-0.301 0.39921 0.301 0.22702 0.3011-0.22702-0.3011-0.39921zm-4.5087-3.4001 0.301-0.39921v-2e-5l-0.301 0.39923zm-2.4674 0-0.301-0.39923v1e-5l0.301 0.39922zm-4.3963 3.3152-0.3011 0.39922 0.3011 0.22701 0.301-0.22701-0.301-0.39922zm-4.3964-3.3152 0.301-0.39922v-1e-5l-0.301 0.39923zm-2.4674 0-0.301-0.39923v2e-5l0.301 0.39921zm-27.427 20.683-0.30105-0.3992-1.5e-4 1e-4 0.3012 0.3991zm69.398 34.41h-0.5v0.5h0.5v-0.5zm7.3867 0v0.5h0.5v-0.5h-0.5zm-8.2018-34.41 0.3011-0.3992h-1e-4l-0.301 0.3992zm-19.516-14.717-0.3011-0.3992-0.5294 0.39922 0.5294 0.3992 0.3011-0.39922zm2.3394-1.7643 0.301-0.39922-0.301-0.22702-0.3011 0.22704 0.3011 0.3992zm25.378 19.138h0.5v-0.2492l-0.1989-0.1501-0.3011 0.3993zm-18.647 31.753h-0.5v0.5h0.5v-0.5zm7.1625 0v0.5h0.5v-0.5h-0.5zm0-31.752h0.5v-0.2492l-0.1989-0.1501-0.3011 0.3993zm-25.379-19.138 0.301-0.39921-0.301-0.22701-0.301 0.22699 0.301 0.39923zm-2.2273 1.6794-0.301-0.39924-0.5295 0.39922 0.5294 0.39923 0.3011-0.39921zm19.628 14.801 0.3011-0.3992h-1e-4l-0.301 0.3992zm-25.306 34.409v0.5h0.5v-0.5h-0.5zm-6.7106 0h-0.5v0.5h0.5v-0.5zm0-14.857v-0.5h-0.5v0.5h0.5zm6.7106 0h0.5v-0.5h-0.5v0.5zm4.0976 14.857h-0.5v0.5h0.5v-0.5zm17.926 0v0.5h0.5v-0.5h-0.5zm0-31.753h0.5v-0.2492l-0.1989-0.15-0.3011 0.3992zm-25.379-19.138 0.301-0.39921-0.301-0.22702-0.301 0.22702 0.301 0.39921zm-25.379 19.138-0.30105-0.3992-0.19895 0.15v0.2492h0.5zm0 31.753h-0.5v0.5h0.5v-0.5zm17.926 0v0.5h0.5v-0.5h-0.5zm31.13-54.693 27.427 20.683 0.6021-0.7984-27.427-20.683-0.6021 0.79843zm-1.8653 1e-5c0.5524-0.41647 1.313-0.41647 1.8653 0l0.6021-0.79846c-0.9088-0.68519-2.1607-0.68519-3.0694 0l0.602 0.79846zm-4.5087 3.4001 4.5088-3.4001-0.6021-0.79842-4.5088 3.4001 0.6021 0.79842zm-5.1109-3.4001 4.5088 3.4001 0.6021-0.79842-4.5088-3.4001-0.6021 0.79842zm-1.8652 2e-5c0.5523-0.41647 1.3129-0.41647 1.8652 0l0.6021-0.79846c-0.9087-0.68519-2.1606-0.68519-3.0694 0l0.6021 0.79846zm-4.3964 3.3152 4.3964-3.3152-0.6021-0.79844-4.3964 3.3152 0.6021 0.79844zm-4.9985-3.3152 4.3964 3.3152 0.6021-0.79844-4.3964-3.3152-0.6021 0.79844zm-1.8652 1e-5c0.5523-0.41647 1.3129-0.41647 1.8652 0l0.6021-0.79846c-0.9087-0.68519-2.1606-0.68519-3.0694 0l0.6021 0.79846zm-27.427 20.683 27.427-20.683-0.6021-0.79843-27.427 20.683 0.60209 0.7984zm-0.61587 1.2366c0-0.4859 0.22816-0.944 0.61603-1.2367l-0.6024-0.7982c-0.63828 0.4817-1.0136 1.2353-1.0136 2.0349h1zm0 34.822v-34.822h-1v34.822h1zm1.5488 1.5488c-0.85537 0-1.5488-0.6934-1.5488-1.5488h-1c0 1.4077 1.1411 2.5488 2.5488 2.5488v-1zm11.26 0h-11.26v1h11.26v-1zm11.484 0h-11.484v1h11.484v-1zm32.11 0h-32.11v1h32.11v-1zm11.26 0h-11.26v1h11.26v-1zm11.484 0h-11.484v1h11.484v-1zm1.5488-1.5488c0 0.8554-0.6934 1.5488-1.5488 1.5488v1c1.4076 0 2.5488-1.1411 2.5488-2.5488h-1zm0-34.822v34.822h1v-34.822h-1zm-0.6162-1.2366c0.388 0.2927 0.6162 0.7507 0.6162 1.2366h1c0-0.7996-0.3754-1.5533-1.014-2.035l-0.6022 0.7984zm-10.368 34.51h7.3867v-1h-7.3867v1zm-0.5-33.274v32.774h1v-32.774h-1zm-0.6162-1.2366c0.3881 0.2927 0.6162 0.7505 0.6162 1.2366h1c0-0.7999-0.3754-1.5533-1.014-2.035l-0.6022 0.7984zm-19.516-14.717 19.516 14.717 0.6021-0.7984-19.516-14.717-0.6021 0.79844zm2.3394-2.5627-2.3394 1.7643 0.6021 0.7984 2.3394-1.7643-0.6021-0.7984zm25.981 19.138-25.379-19.138-0.6021 0.79843 25.379 19.138 0.6021-0.7985zm0.1989 32.152v-31.752h-1v31.752h1zm-18.647 0v-32.774h-1v32.774h1zm0 3e-4v-3e-4h-1v3e-4h1zm6.6625-0.5h-7.1625v1h7.1625v-1zm-0.5-31.252v31.752h1v-31.752h-1zm-25.18-18.739 25.379 19.138 0.6021-0.7985-25.379-19.138-0.602 0.79842zm-1.6253 1.6794 2.2273-1.6794-0.602-0.79846-2.2273 1.6794 0.602 0.79847zm19.628 14.003-19.628-14.801-0.6021 0.79843 19.628 14.801 0.6021-0.7984zm1.0141 2.035c0-0.7999-0.3754-1.5533-1.014-2.035l-0.6022 0.7984c0.3881 0.2927 0.6162 0.7505 0.6162 1.2366h1zm-32.61 33.274h5.9894v-1h-5.9894v1zm-0.7212 0h0.7212v-1h-0.7212v1zm-0.5-15.357v14.857h1v-14.857h-1zm7.2106-0.5h-6.7106v1h6.7106v-1zm0.5 15.357v-14.857h-1v14.857h1zm4.0976 0v-16.905h-1v16.905h1zm17.426-0.5h-17.926v1h17.926v-1zm-0.5-31.253v31.753h1v-31.753h-1zm-25.18-18.739 25.379 19.138 0.6021-0.7984-25.379-19.138-0.602 0.79843zm-24.776 19.138 25.378-19.138-0.602-0.79843-25.379 19.138 0.6021 0.7984zm0.19895 31.353v-31.753h-1v31.753h1zm10.76-0.5h-11.26v1h11.26v-1zm6.6655 0h-6.6655v1h6.6655v-1zm-0.5-16.405v16.905h1v-16.905h-1zm2.5488-2.5488c-1.4077 0-2.5488 1.1411-2.5488 2.5488h1c0-0.8554 0.6934-1.5488 1.5488-1.5488v-1zm10.808 0h-10.808v1h10.808v-1zm2.5488 2.5488c0-1.4077-1.1412-2.5488-2.5488-2.5488v1c0.8554 0 1.5488 0.6934 1.5488 1.5488h1z" fill="#fff" style="fill:#919191"/>
</svg>
