<svg width="29" height="29" fill="none" version="1.1" viewBox="0 0 29 29" xmlns="http://www.w3.org/2000/svg">
 <path d="m14.457 0a14.5 14.5 0 0 0-14.457 14.5 14.5 14.5 0 0 0 14.5 14.5 14.5 14.5 0 0 0 14.5-14.5 14.5 14.5 0 0 0-14.5-14.5 14.5 14.5 0 0 0-0.042969 0zm0.91016 6h2.6328v2.9805h-1.9355c-0.3833 0-0.76953 0.39326-0.76953 0.68555v1.957h2.7012c-0.1087 1.5007-0.33203 2.873-0.33203 2.873h-2.3828v8.5039h-3.5527v-8.5059h-1.7285v-2.8613h1.7285v-2.3398c0-0.42786-0.087828-3.293 3.6387-3.293z" style="fill:#fff"/>
</svg>
