<svg width="66" height="60" fill="none" version="1.1" viewBox="0 0 66 60" xmlns="http://www.w3.org/2000/svg">
 <g clip-rule="evenodd" fill="#FFA600" fill-rule="evenodd">
  <path d="m21.15 17.872c-2.8101 0-5.0964-2.2907-5.0964-5.1063 0-2.8156 2.2863-5.1064 5.0964-5.1064 2.8102 0 5.0965 2.2907 5.0965 5.1064 0 2.8156-2.2863 5.1063-5.0965 5.1063zm0-2.5532c1.4051 0 2.5483-1.1453 2.5483-2.5531 0-1.4079-1.1432-2.5532-2.5483-2.5532-1.405 0-2.5482 1.1453-2.5482 2.5532 0 1.4078 1.1432 2.5531 2.5482 2.5531z" style="fill:#919191"/>
  <path d="m21.15 25.532c-7.0256 0-12.741-5.7267-12.741-12.766 0-7.0392 5.7155-12.766 12.741-12.766 5.0846 0 9.6691 3.0428 11.681 7.6596h3.8451l3.4492-3.4559c0.4978-0.49838 1.3043-0.49838 1.8019 0l2.9214 2.9271 2.9213-2.9271c0.4978-0.49838 1.3043-0.49838 1.802 0l2.9214 2.9271 2.9213-2.9272c0.4978-0.49838 1.3043-0.49838 1.8019 0l7.6447 7.6595c0.2896 0.2903 0.4222 0.7022 0.3567 1.1072-0.0655 0.4051-0.3214 0.7539-0.6879 0.9374l-7.6446 3.8298c-0.1769 0.0888-0.3719 0.1348-0.5698 0.1348h-23.484c-2.0118 4.6168-6.5964 7.6596-11.681 7.6596zm10.815-15.319c-0.5401 0-1.0213-0.34101-1.2013-0.85114-1.437-4.0723-5.3002-6.8085-9.6133-6.8085-5.6204 0-10.193 4.5814-10.193 10.213 0 5.6313 4.5725 10.213 10.193 10.213 4.3129 0 8.1763-2.7361 9.6133-6.8084 0.18-0.5102 0.6613-0.8512 1.2013-0.8512h24.05l5.7945-2.9028-5.4937-5.5044-2.9213 2.9271c-0.4978 0.49842-1.3043 0.49842-1.8019 0l-2.9214-2.9271-2.9213 2.9271c-0.4978 0.49842-1.3043 0.49842-1.802 0l-2.9214-2.9271-2.9214 2.927c-0.239 0.23935-0.563 0.37395-0.9009 0.37395h-5.2391z" style="fill:#919191"/>
  <path d="m41.082 37.66c1.8699 0 3.5469 1.0421 4.4325 2.6037l7.2933-4.8495c4.0396-2.6648 9.3932-1.6594 12.192 2.2864 0.4029 0.5682 0.2766 1.355-0.2836 1.768l-8.8798 6.5445c-0.0404 0.0389-0.0837 0.0756-0.13 0.1097l-18.512 13.63c-0.2207 0.1625-0.4857 0.2482-0.755 0.2482-0.0841 0-0.1683-0.0083-0.2519-0.0252l-21.989-4.4429h-4.006v3.1915c0 0.7049-0.57059 1.2766-1.2742 1.2766h-7.6446c-0.70356 0-1.2741-0.5717-1.2741-1.2766v-19.149c0-0.705 0.57054-1.2766 1.2741-1.2766h7.6446c0.70356 0 1.2742 0.5716 1.2742 1.2766v0.7397l3.3425-2.3674 1.9292-1.7003c4.7989-4.2315 12.036-4.2311 16.834 4e-4l0.8978 0.7908c0.455 0.401 1.053 0.6217 1.684 0.6217h6.2023zm12.598 6.7861c0.0398-0.0383 0.0825-0.0744 0.1282-0.1081l8.2903-6.1099c-2.1114-2.006-5.36-2.3502-7.886-0.6836l-8.0371 5.344c-0.0579 2.7582-2.3198 4.9846-5.0938 4.9846h-15.289c-0.7036 0-1.2742-0.5717-1.2742-1.2766 0-0.705 0.5706-1.2766 1.2742-1.2766h15.289c1.4051 0 2.5483-1.1391 2.5483-2.5392 0-1.4067-1.1481-2.5672-2.5483-2.5672h-6.2024c-1.2511 0-2.4466-0.4467-3.3669-1.2578l-0.898-0.7912c-3.8387-3.3857-9.628-3.3856-13.467-3e-4 -0.8909 0.8036-1.3335 1.2102-1.799 1.5886-0.8126 0.6607-1.6951 1.2357-5.1559 3.6889v9.5377h4.1332c0.0846 0 0.169 0.0085 0.2519 0.0252l21.561 4.3564 17.542-12.915zm-51.133 13.001h5.0964v-16.596h-5.0964v16.596z" style="fill:#919191"/>
 </g>
</svg>
