<svg width="373.61" height="139.86" version="1.1" viewBox="0 0 373.61 139.86" xmlns="http://www.w3.org/2000/svg">
 <g transform="matrix(1.3333 0 0 -1.3333 0 755.91)">
  <g transform="translate(-309.52 301.43)">
   <path d="m384.79 245.86c0.82121 0 1.4858 0.66489 1.4858 1.4856 0 0.81972-0.66464 1.4851-1.4858 1.4851-0.81971 0-1.4854-0.66539-1.4854-1.4851 0-0.82071 0.66564-1.4856 1.4854-1.4856zm-64.499 0.36426c2.6338 10.968 18.357 14.308 35.259 15.323-4.7837-6.3711-3.7411-15.727 3.0604-20.784h4.1066c-4.7459 1.8694-8.2054 6.5662-8.1014 12.153 0.20643 11.045 13.524 16.732 21.606 9.0537 2.9812-0.15984 5.5413-1.1003 7.3935-2.2542 3.971-2.4742 6.318-6.1251 6.9766-10.605 5e-4 -2e-3 1e-3 -3e-3 1e-3 -5e-3 1.9245-10.317 2.4256-17.299 6.9528-20.509 2.8164-1.9974 5.0298-2.2637 5.0298-2.2637l-1.2947-3.8856s-12.538-1.1226-21.34 11.399c-1.7612 2.5052-4.4014-0.68342-6.7907-5.0573-1.8118-3.3172-4.7081-9.2441-6.0018-11.915h-12.416l6.799 14.467c-1.9699-1.1614-5.8522-4.0998-12.904-3.4094l-0.19566-2.0027c3.0814-0.30137 6.095 0.0494 8.7738 0.93646l-4.6963-9.9911h-9.6206l-3.5599 10.237c-0.93095 0.28485-1.7855 0.63283-2.4972 1.056l3.927-11.293h-13.255c-2.1199 4.6487-7.2584 19.866-7.5671 24.91-4.0946-1.5337-9.0176-0.17337-10.415 2.6463 1.7194-1.056 8.2016-1.569 10.77 1.793" style="fill:#ff0101"/>
   <text transform="scale(1,-1)" x="320.38159" y="-170.79817" style="fill:#000000;font-family:Montserrat;font-size:52.548px;font-weight:900;line-height:1.25;stroke-width:1.4596" xml:space="preserve"><tspan x="320.38159" y="-170.79817" style="fill:#000000;stroke-width:1.4596">elephant.</tspan></text>
   <text transform="scale(1,-1)" x="406.5325" y="-218.21902" style="fill:#000000;font-family:'Open Sans';font-size:27px;font-weight:bold;line-height:1.25;stroke-width:.75" xml:space="preserve"><tspan x="406.5325" y="-218.21902" style="fill:#000000;stroke-width:.75">Inmobiliaria</tspan></text>
  </g>
 </g>
</svg>
