<svg width="251.64" height="94.199" version="1.1" viewBox="0 0 251.64 94.199" xmlns="http://www.w3.org/2000/svg">
 <g transform="matrix(1.3333 0 0 -1.3333 0 755.91)">
  <g transform="translate(-309.52 301.43)">
   <g transform="translate(.00017466 8.2686e-5)">
    <path d="m360.22 252.27c0.55311 0 1.0008 0.44782 1.0008 1.0006 0 0.55211-0.44765 1.0003-1.0008 1.0003-0.5521 0-1.0004-0.44816-1.0004-1.0003 0-0.55277 0.44833-1.0006 1.0004-1.0006zm-43.442 0.24534c1.7739 7.3872 12.364 9.6371 23.748 10.32-3.222-4.2911-2.5197-10.593 2.0613-13.999h2.7659c-3.1965 1.2591-5.5266 4.4226-5.4566 8.1855 0.13903 7.4388 9.109 11.269 14.553 6.0979 2.0079-0.10766 3.7322-0.74109 4.9797-1.5183 2.6746-1.6664 4.2553-4.1254 4.6989-7.1427 3.3e-4 -1e-3 6.7e-4 -2e-3 6.7e-4 -3e-3 1.2962-6.9488 1.6337-11.651 4.6829-13.813 1.8969-1.3453 3.3877-1.5247 3.3877-1.5247l-0.87202-2.6171s-8.4445-0.7561-14.373 7.6776c-1.1862 1.6874-2.9645-0.4603-4.5737-3.4062-1.2203-2.2342-3.171-6.2262-4.0424-8.0249h-8.3627l4.5793 9.7438c-1.3268-0.78225-3.9416-2.7613-8.6915-2.2963l-0.13178-1.3489c2.0754-0.20298 4.1052 0.0333 5.9094 0.63073l-3.1631-6.7293h-6.4798l-2.3977 6.895c-0.62702 0.19185-1.2026 0.42623-1.682 0.71122l2.6449-7.6062h-8.9274c-1.4278 3.131-4.8888 13.38-5.0966 16.778-2.7578-1.033-6.0736-0.11677-7.0148 1.7824 1.158-0.71122 5.5241-1.0568 7.2541 1.2076" style="fill:#5f3c16"/>
    <text transform="scale(1,-1)" x="316.8353" y="-201.7149" style="font-family:Montserrat;font-size:35.392px;font-weight:900;line-height:1.25;stroke-width:.98312" xml:space="preserve"><tspan x="316.8353" y="-201.7149" style="stroke-width:.98312">elephant.</tspan></text>
    <text transform="scale(1,-1)" x="374.8605" y="-233.65425" style="font-family:'Open Sans';font-size:18.185px;font-weight:bold;line-height:1.25;stroke-width:.50515" xml:space="preserve"><tspan x="374.8605" y="-233.65425" style="stroke-width:.50515">Inmobiliaria</tspan></text>
   </g>
  </g>
 </g>
</svg>
