<svg width="161" height="30" viewBox="0 0 161 30" fill="none" xmlns="http://www.w3.org/2000/svg">
<path d="M63.5784 20.9362C63.2576 21.3191 62.8085 21.6383 62.2953 21.9574C61.7179 22.2766 61.0763 22.5319 60.3706 22.7234C59.6649 22.9149 58.895 23.0426 58.061 23.0426C56.6496 23.0426 55.4306 22.7234 54.2758 22.0851C53.1852 21.4468 52.287 20.4894 51.6454 19.3404C51.0039 18.1277 50.6831 16.7234 50.6831 15.1277C50.6831 13.9787 50.8756 12.9574 51.2605 12C51.6454 11.0426 52.2228 10.2128 52.9286 9.51064C53.6343 8.80851 54.4683 8.23404 55.3665 7.85106C56.2647 7.46809 57.227 7.2766 58.2535 7.2766C59.0875 7.2766 59.8574 7.40426 60.6272 7.65957C61.333 7.91489 61.9745 8.23404 62.5519 8.68085C63.1293 9.06383 63.5142 9.51064 63.835 9.95745L62.2311 11.5532C61.6537 10.9787 61.0763 10.5319 60.4348 10.1489C59.7932 9.76596 59.0233 9.57447 58.2535 9.57447C57.3553 9.57447 56.5213 9.76596 55.7514 10.2128C54.9815 10.6596 54.34 11.2979 53.8267 12.1277C53.3135 12.9574 53.121 13.9149 53.121 15.0638C53.121 16.2766 53.3776 17.3617 53.8909 18.1277C54.4041 18.9574 55.0457 19.5957 55.8797 19.9787C56.7137 20.3617 57.6119 20.617 58.5101 20.617C59.4083 20.617 60.1781 20.4255 60.8197 20.1064C61.4613 19.7872 62.0387 19.4043 62.4236 18.9574L63.5784 20.9362Z" fill="white"/>
<path d="M66.2729 22.8511V6.51064H68.5826V22.8511H66.2729Z" fill="white"/>
<path fill-rule="evenodd" clip-rule="evenodd" d="M82.44 22.7872V11.234V11.1702H80.0021V12.7021C79.6172 12.2553 79.1681 11.8723 78.5265 11.4894C77.9491 11.1702 77.2434 10.9787 76.4094 10.9787C75.3187 10.9787 74.2922 11.234 73.4582 11.7447C72.6242 12.2553 71.9826 12.9574 71.4694 13.8511C71.0203 14.7447 70.7637 15.8298 70.7637 16.9787C70.7637 18.1277 71.0203 19.2128 71.4694 20.1064C71.9185 21.0638 72.56 21.766 73.3941 22.2766C74.2281 22.7872 75.1263 23.0426 76.0886 23.0426C77.0509 23.0426 77.8208 22.8511 78.5265 22.4043C79.2322 22.0213 79.7455 21.5745 80.1304 21.0638V22.7872H82.44ZM78.5265 20.4255C78.0133 20.7447 77.3717 20.9362 76.666 20.9362C75.9603 20.9362 75.3829 20.8085 74.8696 20.4255C74.3564 20.1064 73.9715 19.6596 73.6507 19.0213C73.3299 18.383 73.2016 17.7447 73.2016 16.9787C73.2016 16.2766 73.3299 15.5745 73.6507 15C73.9073 14.4255 74.3564 13.9149 74.8696 13.5957C75.3829 13.2766 75.9603 13.0851 76.666 13.0851C77.3717 13.0851 78.0133 13.2766 78.5265 13.5957C79.0398 13.9149 79.4247 14.4255 79.7455 15C80.0662 15.5745 80.1946 16.2128 80.1946 16.9787C80.1946 17.7447 80.0662 18.4468 79.7455 19.0213C79.4888 19.5957 79.0398 20.1064 78.5265 20.4255Z" fill="white"/>
<path d="M92.3201 14.2979C91.9352 13.9149 91.4219 13.5319 90.9087 13.2766C90.3955 13.0213 89.8822 12.8936 89.4331 12.8936C89.1123 12.8936 88.7916 12.9574 88.5349 13.0213C88.2142 13.0851 87.9575 13.2128 87.7651 13.4043C87.5726 13.5957 87.4443 13.9149 87.4443 14.2979C87.4443 14.8085 87.7009 15.1915 88.15 15.4468C88.5991 15.6383 89.1765 15.8936 89.8822 16.0213C90.4596 16.2128 91.1012 16.4043 91.6786 16.6596C92.256 16.9149 92.7051 17.234 93.09 17.7447C93.4749 18.1915 93.6674 18.8298 93.6674 19.7234C93.6674 20.4255 93.4749 21.0638 93.0258 21.5745C92.5768 22.0851 92.0635 22.4681 91.4219 22.7234C90.7804 22.9787 90.0747 23.1064 89.369 23.1064C88.5349 23.1064 87.7009 22.9787 86.8669 22.6596C86.0329 22.3404 85.3272 21.8298 84.7498 21.1277L86.2895 19.7872C86.6744 20.234 87.1235 20.617 87.6368 20.8723C88.15 21.1277 88.7916 21.2553 89.4973 21.2553C89.7539 21.2553 90.0747 21.1915 90.3313 21.1277C90.5879 21.0638 90.8445 20.8723 91.037 20.6809C91.2295 20.4894 91.3578 20.1702 91.3578 19.7872C91.3578 19.4043 91.2295 19.1489 91.037 18.9574C90.8445 18.766 90.5238 18.5745 90.203 18.4468C89.8181 18.3191 89.4331 18.1915 89.0482 18.1277C88.4066 17.9362 87.7651 17.7447 87.1877 17.4894C86.5461 17.234 86.0329 16.8511 85.6479 16.4043C85.263 15.9574 85.0064 15.2553 85.0064 14.4255C85.0064 13.7234 85.1988 13.1489 85.5838 12.6383C85.9687 12.1277 86.482 11.7447 87.1235 11.4894C87.7651 11.234 88.4708 11.1064 89.1765 11.1064C89.8822 11.1064 90.6521 11.234 91.4219 11.5532C92.256 11.8723 92.8975 12.3192 93.4108 12.9574L92.3201 14.2979Z" fill="white"/>
<path fill-rule="evenodd" clip-rule="evenodd" d="M96.6186 8.36171C96.8752 8.61703 97.2601 8.74469 97.7734 8.74469C98.2866 8.74469 98.6716 8.61703 98.9282 8.29788C99.1848 7.97873 99.3131 7.65958 99.3131 7.2766C99.3131 6.89362 99.1848 6.51064 98.9282 6.25532C98.6716 6 98.2866 5.87234 97.7734 5.87234C97.2601 5.87234 96.8752 6 96.6186 6.31915C96.362 6.6383 96.2336 6.95745 96.2336 7.34043C96.2336 7.72341 96.362 8.10639 96.6186 8.36171ZM96.6186 11.234V22.8511H98.9282V11.234H96.6186Z" fill="white"/>
<path d="M108.487 11.0426C109.514 11.0426 110.348 11.234 110.925 11.6809C111.503 12.1277 111.888 12.7021 112.144 13.4043C112.401 14.1064 112.465 14.9362 112.465 15.8298V22.9149H110.155V15.9575C110.155 15.383 110.091 14.8723 109.963 14.4255C109.835 13.9787 109.578 13.6596 109.193 13.4043C108.808 13.1489 108.359 13.0213 107.717 13.0851C107.14 13.0851 106.627 13.2128 106.114 13.4681C105.664 13.7234 105.28 14.0426 105.023 14.4894C104.766 14.8723 104.638 15.383 104.638 15.8298V22.8511H102.328V6.51064H104.638V13.0851C105.023 12.5106 105.536 12.0638 106.178 11.617C106.948 11.234 107.653 11.0426 108.487 11.0426Z" fill="white"/>
<path fill-rule="evenodd" clip-rule="evenodd" d="M126.002 20.1702C126.515 19.2766 126.772 18.1915 126.772 17.0426C126.772 15.8298 126.515 14.8085 126.002 13.9149C125.489 13.0213 124.783 12.3192 123.885 11.8085C122.987 11.2979 121.96 11.0426 120.869 11.0426C119.779 11.0426 118.752 11.2979 117.854 11.8085C116.956 12.3192 116.25 13.0213 115.737 13.9149C115.224 14.8085 114.967 15.8298 114.967 17.0426C114.967 18.2553 115.224 19.2766 115.737 20.1702C116.25 21.0638 116.956 21.766 117.854 22.2766C118.752 22.7872 119.779 23.0426 120.869 23.0426C121.96 23.0426 122.987 22.7872 123.885 22.2766C124.783 21.766 125.489 21.0638 126.002 20.1702ZM123.949 15C124.27 15.5745 124.398 16.2766 124.398 17.0426C124.462 17.8085 124.27 18.5106 123.949 19.0851C123.628 19.6596 123.243 20.1702 122.666 20.4894C122.088 20.8085 121.511 21 120.805 21C120.099 21 119.522 20.8085 118.945 20.4894C118.431 20.1702 117.982 19.6596 117.662 19.0851C117.341 18.5106 117.212 17.8085 117.212 17.0426C117.212 16.2766 117.341 15.5745 117.662 15C117.982 14.3617 118.367 13.9149 118.945 13.5957C119.522 13.2766 120.099 13.0851 120.805 13.0851C121.511 13.0851 122.088 13.2766 122.666 13.5957C123.179 13.9149 123.628 14.4255 123.949 15Z" fill="white"/>
<path d="M135.176 11.0426C136.138 11.0426 136.908 11.234 137.486 11.6809C138.063 12.1277 138.448 12.7021 138.705 13.4681C138.897 13.0851 139.218 12.7021 139.603 12.383C139.988 12 140.437 11.6809 141.014 11.4255C141.528 11.1702 142.105 11.0426 142.747 11.0426C143.773 11.0426 144.543 11.234 145.12 11.6809C145.698 12.1277 146.083 12.7021 146.275 13.4043C146.532 14.1064 146.596 14.9362 146.596 15.8298V22.7872H144.286V16.0213C144.286 15.1915 144.094 14.4894 143.773 13.9787C143.452 13.4681 142.811 13.2128 141.912 13.2128C141.078 13.2128 140.373 13.4681 139.795 14.0426C139.218 14.5532 138.961 15.2553 138.961 16.0213V22.9787H136.652V15.9575C136.652 15.1277 136.459 14.4255 136.138 13.9149C135.754 13.4043 135.176 13.1489 134.406 13.1489C133.829 13.1489 133.316 13.2766 132.867 13.5319C132.417 13.7872 132.097 14.1064 131.84 14.4894C131.583 14.8723 131.455 15.3192 131.455 15.8298V22.7872H129.146V11.234H131.455V13.0851C131.84 12.5745 132.289 12.0638 132.931 11.6809C133.636 11.234 134.342 11.0426 135.176 11.0426Z" fill="white"/>
<path fill-rule="evenodd" clip-rule="evenodd" d="M157.695 22.5319C158.529 22.1489 159.17 21.766 159.683 21.3191L158.529 19.5319C158.208 19.8511 157.823 20.1064 157.31 20.4255C156.796 20.7447 156.155 20.8723 155.321 20.8723C154.23 20.8723 153.268 20.617 152.562 19.9787C151.856 19.3404 151.407 18.5106 151.279 17.4894H160.197V16.5319C160.197 15.383 159.94 14.4255 159.491 13.5957C158.978 12.766 158.336 12.0638 157.566 11.617C156.796 11.1702 155.898 10.9149 154.936 10.9149C153.845 10.9149 152.883 11.1702 151.985 11.6809C151.087 12.1915 150.381 12.8936 149.804 13.7872C149.226 14.6809 148.969 15.8298 148.969 17.1064C148.969 18.2553 149.226 19.2766 149.739 20.1702C150.253 21.0638 151.022 21.766 151.921 22.2766C152.819 22.7872 153.909 23.0426 155.128 23.0426C156.027 23.0426 156.861 22.9149 157.695 22.5319ZM152.562 13.7234C153.268 13.2766 153.974 13.0851 154.872 13.0851C155.385 13.0851 155.834 13.2128 156.219 13.4681C156.668 13.6596 157.053 13.9787 157.31 14.3617C157.631 14.7447 157.759 15.1915 157.823 15.7021V15.8298H151.279C151.472 14.8085 151.921 14.1064 152.562 13.7234Z" fill="white"/>
<ellipse cx="3.9135" cy="15" rx="3.9135" ry="3.89362" fill="#0082A5"/>
<ellipse cx="15.0766" cy="26.0426" rx="3.9135" ry="3.89362" fill="#0082A5"/>
<path d="M11.099 26.0426C11.099 24.1277 10.3291 22.3404 8.98187 21C7.6346 19.6596 5.77409 18.8936 3.91357 18.8936L7.82707 15C7.82707 16.9149 8.59694 18.7021 9.94421 20.0426C11.2915 21.383 13.0878 22.1489 15.0125 22.1489L11.099 26.0426Z" fill="#FF453B"/>
<ellipse cx="3.9135" cy="15" rx="3.9135" ry="3.89362" fill="#F1034A"/>
<ellipse cx="15.0766" cy="3.89362" rx="3.9135" ry="3.89362" fill="#F1034A"/>
<path d="M15.0765 7.78723C13.1518 7.78723 11.3554 8.55319 10.0082 9.89362C8.66091 11.234 7.89104 13.0213 7.89104 14.9362L3.97754 11.0426C5.90221 11.0426 7.69857 10.2766 9.04584 8.93617C10.3931 7.59574 11.163 5.74468 11.163 3.89362L15.0765 7.78723Z" fill="#F1034A"/>
<ellipse cx="15.0766" cy="26.0426" rx="3.9135" ry="3.89362" fill="#DC314F"/>
<ellipse cx="26.1755" cy="15" rx="3.9135" ry="3.89362" fill="#DC314F"/>
<path d="M26.1756 18.8936C24.2509 18.8936 22.4546 19.6596 21.1073 21C19.76 22.3404 18.9902 24.1915 18.9902 26.0426L15.0767 22.1489C17.0013 22.1489 18.7977 21.383 20.145 20.0426C21.4922 18.7021 22.2621 16.8511 22.2621 15L26.1756 18.8936Z" fill="#DC314F"/>
<ellipse cx="26.1755" cy="3.89362" rx="3.9135" ry="3.89362" fill="#FF7C59"/>
<path d="M26.1756 7.78723C24.2509 7.78723 22.4546 8.55319 21.1073 9.89362C19.76 11.234 18.9902 13.0213 18.9902 14.9362L15.0767 11.0426C17.0013 11.0426 18.7977 10.2766 20.145 8.93617C21.4922 7.59574 22.2621 5.74468 22.2621 3.89362L26.1756 7.78723Z" fill="#FF7C59"/>
<ellipse cx="15.0766" cy="15" rx="3.9135" ry="3.89362" fill="#FFAF6C"/>
<ellipse cx="37.2743" cy="15" rx="3.9135" ry="3.89362" fill="#FF7C59"/>
<path d="M37.2745 18.8936C35.3498 18.8936 33.5534 19.6596 32.2062 21C30.8589 22.3404 30.089 24.1915 30.089 26.0426L26.1755 22.1489C28.1002 22.1489 29.8966 21.383 31.2438 20.0426C32.5911 18.7021 33.361 16.8511 33.361 15L37.2745 18.8936Z" fill="#FF7C59"/>
<ellipse cx="26.1755" cy="26.0426" rx="3.9135" ry="3.89362" fill="#FFAF6C"/>
</svg>
