<svg width="21" height="30" viewBox="0 0 21 30" fill="none" xmlns="http://www.w3.org/2000/svg">
<path fill-rule="evenodd" clip-rule="evenodd" d="M8.7459 29.0915C9.07321 29.6604 9.65961 30 10.3145 30C10.9693 30 11.5556 29.6604 11.8829 29.0915L11.893 29.0735L19.3322 15.4571C21.108 12.2068 21.057 8.34899 19.196 5.13735C17.3752 1.99532 14.1413 0.0757324 10.5451 0.00237305C10.3916 -0.000791016 10.2372 -0.000791016 10.0835 0.00237305C6.48741 0.0757324 3.2535 1.99532 1.43282 5.13735C-0.428238 8.34899 -0.479156 12.2069 1.29659 15.4571L8.73577 29.0735L8.7459 29.0915ZM10.1217 1.87696C10.1858 1.87567 10.25 1.87503 10.3144 1.87503C10.3788 1.87503 10.4431 1.87567 10.507 1.87696C13.4425 1.93685 16.0842 3.50716 17.5736 6.07743C19.1035 8.71737 19.1457 11.8877 17.6868 14.5581L10.3144 28.0522L2.94196 14.5581C1.48303 11.8877 1.52534 8.71737 3.05504 6.07743C4.54444 3.5071 7.1862 1.93685 10.1217 1.87696Z" fill="white"/>
<path fill-rule="evenodd" clip-rule="evenodd" d="M6.0957 9.375C6.0957 11.7012 7.98822 13.5938 10.3145 13.5938C12.6407 13.5938 14.5332 11.7012 14.5332 9.375C14.5332 7.04877 12.6407 5.15625 10.3145 5.15625C7.98822 5.15625 6.0957 7.04877 6.0957 9.375ZM7.9707 9.375C7.9707 8.08266 9.02211 7.03125 10.3145 7.03125C11.6068 7.03125 12.6582 8.08266 12.6582 9.375C12.6582 10.6673 11.6068 11.7188 10.3145 11.7188C9.02211 11.7188 7.9707 10.6673 7.9707 9.375Z" fill="white"/>
</svg>
