<svg width="23px" height="18px" version="1.1" viewBox="0 0 23 18" xmlns="http://www.w3.org/2000/svg">
 <title>habitacion</title>
 <g id="02.-dashboard" fill="none" fill-rule="evenodd" style="fill:#5a5a5a">
  <g transform="translate(-894 -899)" fill="#002438" style="fill:#5a5a5a">
   <g id="habitacion" transform="translate(894 899)" style="fill:#5a5a5a">
    <path d="m21.697 12.344h-20.706v-2.354c0-0.778 0.633-1.411 1.412-1.411h17.882c0.778 0 1.412 0.633 1.412 1.411v2.354zm0 1.882h-20.706v-0.941h20.706v0.941zm-12.236-8.942v1.882c0 0.26-0.211 0.471-0.471 0.471h-3.501c-0.145 0-0.281-0.065-0.37-0.181-0.089-0.115-0.122-0.262-0.086-0.403l0.471-1.883c0.053-0.209 0.241-0.355 0.456-0.356h3.03c0.26 0 0.471 0.211 0.471 0.47zm8.107 2.173c-0.09 0.116-0.225 0.181-0.371 0.181h-3.5c-0.26 0-0.471-0.211-0.471-0.471v-1.882c0-0.259 0.211-0.47 0.471-0.47h3.029c0.217 0 0.404 0.146 0.457 0.356l0.471 1.882c0.035 0.142 4e-3 0.289-0.086 0.404zm-14.695-4.054c0-0.779 0.634-1.413 1.412-1.413h14.118c0.778 0 1.411 0.634 1.411 1.413v4.235h-1.295c0.093-0.259 0.116-0.538 0.048-0.814l-0.471-1.881c-0.157-0.63-0.721-1.07-1.37-1.07h-3.029c-0.779 0-1.412 0.634-1.412 1.412v1.882c0 0.166 0.034 0.323 0.087 0.471h-2.056c0.053-0.148 0.087-0.305 0.087-0.471v-1.882c0-0.778-0.634-1.412-1.412-1.412h-3.03c-0.648 0-1.212 0.441-1.369 1.07l-0.471 1.881c-0.069 0.276-0.045 0.555 0.047 0.814h-1.295v-4.235zm17.883 4.283v-4.283c0-1.297-1.057-2.353-2.353-2.353h-14.118c-1.297 0-2.353 1.056-2.353 2.353v4.283c-1.072 0.219-1.882 1.169-1.882 2.304v6.589c0 0.26 0.21 0.471 0.47 0.471s0.471-0.211 0.471-0.471v-1.412h20.706v1.412c0 0.26 0.21 0.471 0.47 0.471s0.471-0.211 0.471-0.471v-6.589c0-1.135-0.811-2.085-1.882-2.304z" style="fill:#5a5a5a"/>
    <g transform="translate(0 .0996)" style="fill:#5a5a5a">
     <path d="m5.9604 4.7637c-0.192 1e-3 -0.36 0.132-0.408 0.319l-0.47 1.882c-0.033 0.126-4e-3 0.257 0.076 0.362 0.08 0.102 0.2 0.161 0.331 0.161h3.501c0.232 0 0.421-0.189 0.421-0.421v-1.882c0-0.233-0.189-0.421-0.421-0.421h-3.03zm3.03 2.823h-3.501c-0.162 0-0.311-0.072-0.41-0.2s-0.134-0.291-0.094-0.446l0.47-1.882c0.059-0.232 0.267-0.394 0.505-0.395h3.03c0.287 0 0.52 0.234 0.52 0.521v1.882c0 0.287-0.233 0.52-0.52 0.52zm4.706-2.822c-0.232 0-0.42 0.188-0.42 0.421v1.882c0 0.232 0.188 0.421 0.42 0.421h3.501c0.131 0 0.251-0.059 0.331-0.162 0.081-0.103 0.109-0.235 0.077-0.361l-0.471-1.883c-0.047-0.187-0.215-0.318-0.408-0.318h-3.03zm3.501 2.823h-3.501c-0.286 0-0.52-0.233-0.52-0.52v-1.882c0-0.287 0.234-0.521 0.52-0.521h3.03c0.239 0 0.447 0.162 0.505 0.395l0.471 1.882c0.039 0.156 5e-3 0.319-0.095 0.446-0.099 0.128-0.248 0.2-0.41 0.2zm1.391-0.099h1.176v-4.186c0-0.751-0.611-1.362-1.362-1.362h-14.117c-0.751 0-1.362 0.611-1.362 1.362v4.186h1.176c-0.08-0.259-0.089-0.526-0.026-0.776l0.47-1.882c0.163-0.652 0.746-1.107 1.418-1.107h3.03c0.806 0 1.461 0.655 1.461 1.462v1.882c0 0.138-0.022 0.277-0.067 0.421h1.917c-0.045-0.145-0.067-0.284-0.067-0.421v-1.882c0-0.807 0.655-1.462 1.461-1.462h3.03c0.672 0 1.255 0.455 1.418 1.107l0.471 1.882c0.062 0.25 0.053 0.517-0.027 0.776zm1.276 0.099h-1.416l0.024-0.066c0.093-0.261 0.109-0.532 0.046-0.785l-0.471-1.882c-0.151-0.607-0.694-1.031-1.321-1.031h-3.03c-0.751 0-1.361 0.611-1.361 1.362v1.882c0 0.147 0.027 0.296 0.083 0.454l0.024 0.066h-2.197l0.024-0.066c0.056-0.157 0.084-0.306 0.084-0.454v-1.882c0-0.751-0.611-1.362-1.362-1.362h-3.03c-0.626 0-1.169 0.424-1.321 1.031l-0.471 1.882c-0.063 0.253-0.047 0.524 0.046 0.785l0.024 0.066h-1.416v-4.285c0-0.807 0.656-1.462 1.462-1.462h14.117c0.807 0 1.462 0.655 1.462 1.462v4.285zm-18.823 4.607h20.606v-2.304c0-0.751-0.611-1.361-1.362-1.361h-17.883c-0.751 0-1.361 0.61-1.361 1.361v2.304zm20.706 0.099h-20.806v-2.403c0-0.806 0.655-1.461 1.461-1.461h17.883c0.806 0 1.462 0.655 1.462 1.461v2.403zm-20.706 1.783h20.606v-0.841h-20.606v0.841zm20.656 0.099h-20.756v-1.04h20.805v0.99h-0.049v0.05zm-20.756 0.842h20.806v1.462c0 0.232 0.188 0.421 0.42 0.421s0.421-0.189 0.421-0.421v-6.589c0-1.089-0.775-2.038-1.842-2.256l-0.04-8e-3v-4.324c0-1.269-1.034-2.303-2.304-2.303h-14.117c-1.27 0-2.304 1.034-2.304 2.303v4.324l-0.04 8e-3c-1.067 0.218-1.842 1.167-1.842 2.256v6.589c0 0.232 0.189 0.421 0.421 0.421s0.421-0.189 0.421-0.421v-1.462zm21.226 1.982c-0.287 0-0.52-0.233-0.52-0.52v-1.362h-20.606v1.362c0 0.287-0.234 0.52-0.521 0.52s-0.52-0.233-0.52-0.52v-6.589c0-1.123 0.789-2.103 1.882-2.345v-4.243c0-1.325 1.078-2.402 2.403-2.402h14.117c1.326 0 2.403 1.077 2.403 2.402v4.243c1.093 0.242 1.883 1.222 1.883 2.345v6.589c0 0.287-0.234 0.52-0.521 0.52z" style="fill:#5a5a5a"/>
    </g>
   </g>
  </g>
 </g>
</svg>
