<svg width="14" height="14" viewBox="0 0 14 14" fill="none" xmlns="http://www.w3.org/2000/svg">
<path fill-rule="evenodd" clip-rule="evenodd" d="M11.3749 5.68752C11.3749 6.94027 10.9629 8.09586 10.2739 9.03665L14 12.7627L12.7627 14L9.03671 10.274C8.09592 10.9629 6.94023 11.375 5.68749 11.375C2.55152 11.375 0 8.82351 0 5.68752C0 2.55153 2.55149 0 5.68746 0C8.82343 0 11.3749 2.55153 11.3749 5.68752ZM1.75001 5.68752C1.75001 7.8588 3.51623 9.62503 5.68749 9.62503C7.85872 9.62503 9.62497 7.8588 9.62497 5.68752C9.62497 3.51625 7.85875 1.75002 5.68749 1.75002C3.51623 1.75002 1.75001 3.51625 1.75001 5.68752Z" fill="white"/>
</svg>
