<svg width="20px" height="18px" version="1.1" viewBox="0 0 20 18" xmlns="http://www.w3.org/2000/svg">
 <title>superficie</title>
 <g id="02.-dashboard" fill="none" fill-rule="evenodd" style="fill:#5a5a5a">
  <g transform="translate(-608 -974)" fill="#002438" fill-rule="nonzero" style="fill:#5a5a5a">
   <g id="superficie" transform="translate(608 974)" style="fill:#5a5a5a">
    <path id="Shape" d="m19.12 8.4285-2.8606-1.5018 2.8573-1.8536-9.5569-5.061-9.5569 5.061 2.8573 1.8536-2.8605 1.5018 2.8605 1.8557-2.8605 1.5018 9.5602 6.2019 9.5602-6.2019-2.8605-1.5018 2.8605-1.8557zm-2.2103-3.2577-1.8963 1.2302-1.659-1.027 1.7728-1.1471 1.7825 0.94392zm-8.38 1.992-1.6267 1.0526-1.8527-1.2019 1.6739-1.0189 1.8054 1.1682zm-0.7439-1.8144 1.7149-1.0439 1.7612 1.0903-1.7022 1.1014-1.774-1.1479zm1.774 2.4809 1.628 1.0534-1.628 1.0561-1.628-1.0561 1.628-1.0534zm1.0301-0.66656 1.725-1.1161 1.6604 1.0278-1.7587 1.1409-1.6267-1.0526zm3.4044-3.5359-1.6927 1.0953-1.7287-1.0702 1.6139-0.98238 1.8076 0.95729zm-4.4345-2.3484 1.4759 0.78158-1.53 0.93129-1.4663-0.90773 1.5204-0.80515zm-2.6664 1.4121 1.5402 0.9534-1.6911 1.0293-1.6172-1.0464 1.7681-0.9363zm-4.6836 2.4802 1.7825-0.94395 1.6886 1.0926-1.6725 1.0181-1.7985-1.1667zm0.0032863 3.3597 1.724-0.90512 5.6227 3.6476 5.6227-3.6476 1.724 0.90512-7.3467 4.7659-7.3467-4.7659zm14.693 3.3575-7.3467 4.7659-7.3467-4.7659 1.724-0.90512 5.6227 3.6476 5.6227-3.6476 1.7239 0.90512z" style="fill:#5a5a5a"/>
   </g>
  </g>
 </g>
</svg>
