<svg width="82" height="60" fill="none" version="1.1" viewBox="0 0 82 60" xmlns="http://www.w3.org/2000/svg">
 <g fill="#FFA600">
  <path d="m72.346 26.999c-2.7902-1.3899-8.0217-1.406-8.243-1.406-0.6634 0-1.2012 0.5359-1.2012 1.1968 0 0.661 0.5378 1.1968 1.2012 1.1968 1.3499 2e-4 5.2694 0.2073 7.1687 1.1534 0.1725 0.086 0.3557 0.1266 0.5362 0.1266 0.4406 0 0.8649-0.2426 1.0753-0.6618 0.2968-0.5912 0.0562-1.3101-0.5372-1.6058z" style="fill:#919191"/>
  <path d="m78.334 44.039-4.9608-1.4123c-0.2141-0.0609-0.3637-0.2585-0.3637-0.4804v-1.6499c0.4036-0.2786 0.7886-0.5904 1.1485-0.9384 1.7441-1.6864 2.7045-3.9484 2.7045-6.3695v-2.2766l0.4797-0.9557c0.5264-1.0492 0.8046-2.2238 0.8046-3.3967v-6.1676c0-0.6609-0.5378-1.1968-1.2012-1.1968h-11.559c-4.2031 0-7.6228 3.4073-7.6228 7.5951v0.0714c0 0.9753 0.2314 1.952 0.6691 2.8243l0.6152 1.2258v1.9548c0 3.098 1.5322 5.8776 3.853 7.5503l3e-4 1.7291c0 0.2667 0 0.3771-0.9918 0.6596l-2.4206 0.689-7.0022-2.5369c0.0251-0.3292-0.0863-0.664-0.3274-0.9163l-2.2375-2.3422v-3.9319c0.2366-0.1942 0.4697-0.3937 0.6957-0.6047 2.8228-2.6361 4.4416-6.3581 4.4416-10.211v-3.1401c0.8524-1.848 1.2843-3.8036 1.2843-5.8176v-12.796c0-0.66096-0.5378-1.1968-1.2011-1.1968h-17.981c-6.3278 0-11.476 5.1294-11.476 11.434v2.5594c0 2.014 0.4319 3.9696 1.2843 5.8176v2.7018c0 4.4738 1.9965 8.5043 5.1373 11.162v4.0244l-2.2375 2.3423c-0.2411 0.2523-0.3525 0.587-0.3274 0.9162l-7.3904 2.6775c-0.5355 0.1941-1.0332 0.4569-1.485 0.7753l-1.1604-0.5782c3.4545-1.4982 4.5489-3.6054 4.6014-3.7101 0.1691-0.3369 0.1691-0.7336 0-1.0704-0.866-1.7257-0.9709-4.8886-1.0551-7.43-0.028-0.846-0.0546-1.6453-0.1054-2.357-0.4095-5.7406-4.7895-10.07-10.188-10.07-5.3989 0-9.779 4.329-10.188 10.07-0.05077 0.7118-0.07736 1.5111-0.10538 2.3574-0.08425 2.5412-0.18931 5.7038-1.0551 7.4294-0.16913 0.3369-0.16913 0.7336 0 1.0705 0.05253 0.1046 1.1446 2.2075 4.6061 3.7075l-3.2235 1.6058c-1.7233 0.8592-2.7938 2.5849-2.7938 4.5045v8.8418c0 0.661 0.5378 1.1968 1.2012 1.1968 0.66337 0 1.2012-0.5358 1.2012-1.1968v-8.8418c0-1.0073 0.56167-1.9129 1.4658-2.3633l4.014-1.9997 1.3962 1.3221c0.97627 0.9244 2.2288 1.3864 3.4817 1.3864 1.2526 0 2.5056-0.4623 3.4816-1.3864l1.3961-1.3219 1.3088 0.652c-0.6163 0.9825-0.9661 2.1346-0.9661 3.3415v9.2115c0 0.6609 0.5378 1.1968 1.2012 1.1968s1.2012-0.5359 1.2012-1.1968v-9.2115c0-1.643 1.0411-3.1241 2.591-3.6857l7.7919-2.823 3.2436 4.848c0.4147 0.6198 1.0792 1.0173 1.8231 1.0907 0.083 0.0082 0.1654 0.0121 0.2478 0.0121 0.6563 0 1.2849-0.2574 1.7548-0.7254l1.9789-1.9717v12.467c0 0.661 0.5378 1.1968 1.2012 1.1968 0.6633 0 1.2011-0.5358 1.2011-1.1968v-12.467l1.9789 1.9717c0.4698 0.4682 1.0984 0.7256 1.7548 0.7256 0.0822 0 0.1648-4e-3 0.2477-0.0121 0.744-0.0734 1.4085-0.4709 1.8232-1.0907l3.2438-4.8479 7.7917 2.823c1.5497 0.5616 2.591 2.0428 2.591 3.6857v9.2115c0 0.6609 0.5378 1.1968 1.2012 1.1968s1.2012-0.5359 1.2012-1.1968v-9.2115c0-1.664-0.6635-3.2246-1.7766-4.3788l0.2967-0.0845c0.2994-0.0852 0.7078-0.2018 1.1178-0.4021l3.0668 3.0557v11.021c0 0.6609 0.5378 1.1968 1.2012 1.1968 0.6633 0 1.2012-0.5359 1.2012-1.1968v-11.021l3.0455-3.0345c0.1619 0.082 0.332 0.1513 0.511 0.2022l4.961 1.4122c1.1323 0.3224 1.9234 1.3671 1.9234 2.5406v9.9007c0 0.6609 0.5378 1.1968 1.2011 1.1968 0.6634 0 1.2012-0.5359 1.2012-1.1968v-9.9007c0-2.2369-1.5074-4.2282-3.6657-4.8427zm-70.628-2.1139c-2.2468-0.8056-3.3738-1.8795-3.855-2.4659 0.328-0.8544 0.54068-1.8329 0.68466-2.8658 0.66241 1.5825 1.7718 2.9334 3.1703 3.8973v1.4344zm3.2275 3.2389c1.0242 0.9699 2.6291 0.97 3.6536 1e-4l1.117-1.0575c-0.1887-0.352-0.2922-0.7511-0.2922-1.1692l2e-4 -1.2747c-0.8394 0.2595-1.7297 0.4009-2.6517 0.4009-0.9232 0-1.8139-0.1408-2.6519-0.4017v1.2757c0 0.4179-0.1036 0.8168-0.2921 1.1687l1.1171 1.0577zm1.8272-5.494c-3.5868 0-6.5047-2.9075-6.5047-6.4811 0-0.661-0.5378-1.1969-1.2012-1.1969-0.06726 0-0.13293 0.0069-0.19715 0.0176l0.01041-0.308c0.02675-0.8229 0.05253-1.6002 0.1001-2.2669 0.15343-2.1504 1.0159-4.132 2.4284-5.58 1.4252-1.4611 3.3301-2.2656 5.3638-2.2656s3.9384 0.8045 5.3638 2.2656c1.4126 1.448 2.275 3.4296 2.4284 5.58 0.0474 0.6666 0.0734 1.4437 0.1006 2.2664l0.0072 0.2136c-1.3069-2.0062-3.3251-3.4847-5.933-4.3196-2.4092-0.7712-4.4813-0.7235-4.5687-0.7212-0.3146 0.0087-0.61313 0.1399-0.83142 0.3655l-2.1672 2.2395c-0.46045 0.4759-0.44668 1.2335 0.03091 1.6923 0.47758 0.4588 1.238 0.4449 1.6984-0.0308l1.8034-1.8634c1.553 0.0757 6.5494 0.6546 8.4926 4.918-0.489 3.1417-3.1991 5.475-6.4247 5.475zm5.0536 0.8317-2e-4 1.4274c2.2446-0.8052 3.3769-1.8888 3.8553-2.4696-0.3274-0.8524-0.5399-1.8287-0.6839-2.8593-0.6629 1.5945-1.7739 2.9429-3.1712 3.9015zm11.559-17.989v-2.9694c0-0.1801-0.0408-0.358-0.1194-0.5203-0.773-1.5948-1.1649-3.2869-1.1649-5.0295v-2.5593c0-4.9849 4.0704-9.0403 9.0734-9.0403h16.779v11.6c0 1.7425-0.3919 3.4346-1.1648 5.0294-0.0787 0.1623-0.1195 0.3402-0.1195 0.5204v3.4077c0 3.2411-1.3077 6.2474-3.6822 8.465-0.2964 0.2767-0.6041 0.5361-0.9221 0.7779-0.0071 0.0048-0.0138 0.01-0.0207 0.015-2.2244 1.6827-4.949 2.5005-7.7943 2.3169-6.0925-0.3931-10.865-5.6699-10.865-12.013zm6.7631 24.082 2e-4 -1e-4 3.0056-2.9949-5.6671-3.8597-1.2021 1.2586 3.7356 5.5832c0.0066 0.0099 0.022 0.0327 0.061 0.0365 0.039 0.0041 0.0584-0.0152 0.0668-0.0236zm4.879-4.6187-6.5047-4.4301v-2.2341c1.6831 0.9066 3.5676 1.4735 5.572 1.6028 0.3166 0.0204 0.6313 0.0305 0.945 0.0305 2.2968 0 4.5073-0.547 6.4925-1.5854v2.1862l-6.5048 4.4301zm4.9458 4.6426c0.0391-0.0038 0.0545-0.0266 0.061-0.0365l3.7358-5.5832-1.2023-1.2586-5.6671 3.8598 3.0057 2.9948 0.0011 0.0011c0.0091 0.0088 0.0283 0.0274 0.0658 0.0226zm21.995-1.0463-2.7259-2.7158c0.0476-0.2152 0.0745-0.4509 0.0743-0.7109l-1e-4 -0.505c0.7564 0.2473 1.5537 0.3941 2.3786 0.4187 0.0926 0.0029 0.1844 0.0041 0.2766 0.0041 0.9116 0 1.8014-0.1372 2.6483-0.3991v0.482c0 0.2387 0.0302 0.4726 0.0869 0.6974l-2.7387 2.7286zm-0.2009-5.9055c1.7757 0.0546 3.4575-0.5955 4.7306-1.8265 1.2737-1.2316 1.9752-2.8835 1.9752-4.6516v-2.5593c0-0.1859 0.0434-0.3689 0.1268-0.5352l0.6064-1.2083c0.3605-0.7185 0.5511-1.5229 0.5511-2.3262v-4.9708h-10.358c-2.8785 0-5.2205 2.3333-5.2205 5.2015v0.0713c0 0.6058 0.1437 1.2122 0.4155 1.7539l0.742 1.4786c0.0834 0.1661 0.1268 0.3493 0.1268 0.5352v2.2374c0 3.6455 2.8279 6.6961 6.3039 6.8z" clip-rule="evenodd" fill-rule="evenodd" style="fill:#919191"/>
  <path d="m75.662 49.906c-0.6634 0-1.2012 0.5358-1.2012 1.1968v7.6779c0 0.661 0.5378 1.1968 1.2012 1.1968s1.2012-0.5358 1.2012-1.1968v-7.6779c0-0.6608-0.5378-1.1968-1.2012-1.1968z" style="fill:#919191"/>
  <path d="m6.3385 51.488c-0.66337 0-1.2012 0.5359-1.2012 1.1968v6.0959c0 0.661 0.5378 1.1968 1.2012 1.1968s1.2012-0.5358 1.2012-1.1968v-6.0959c0-0.6608-0.5378-1.1968-1.2012-1.1968z" style="fill:#919191"/>
  <path d="m50.855 14.427c-4.543-4.5265-14.048-3.6611-17.924-3.079-1.2209 0.1834-2.1069 1.2128-2.1069 2.4477v2.7572c0 0.6609 0.5378 1.1968 1.2012 1.1968s1.2012-0.5359 1.2012-1.1968v-2.7573c0-0.0407 0.0269-0.0755 0.0628-0.0809 1.5482-0.2325 4.6205-0.5913 7.8036-0.3798 3.7457 0.2484 6.4588 1.1853 8.0637 2.7846 0.4691 0.4674 1.2297 0.4674 1.6986 0 0.4691-0.4674 0.4691-1.2253 0-1.6925z" style="fill:#919191"/>
  <path d="m26.888 52.466c-0.6634 0-1.2012 0.5358-1.2012 1.1968v5.1186c0 0.661 0.5378 1.1969 1.2012 1.1969s1.2012-0.5359 1.2012-1.1969v-5.1186c0-0.6608-0.5378-1.1968-1.2012-1.1968z" style="fill:#919191"/>
  <path d="m55.143 52.466c-0.6634 0-1.2012 0.5358-1.2012 1.1968v5.1186c0 0.661 0.5378 1.1969 1.2012 1.1969s1.2012-0.5359 1.2012-1.1969v-5.1186c0-0.6608-0.5378-1.1968-1.2012-1.1968z" style="fill:#919191"/>
 </g>
</svg>
