<svg width="29" height="29" fill="none" version="1.1" viewBox="0 0 29 29" xmlns="http://www.w3.org/2000/svg">
 <path d="m14.457 0a14.5 14.5 0 0 0-14.457 14.5 14.5 14.5 0 0 0 14.5 14.5 14.5 14.5 0 0 0 14.5-14.5 14.5 14.5 0 0 0-14.5-14.5 14.5 14.5 0 0 0-0.042969 0zm-2.916 6h6.6504c3.0602 0 5.543 2.4808 5.543 5.541v6.6504c0 3.0602-2.4828 5.543-5.543 5.543h-6.6504c-3.0603 0-5.541-2.4828-5.541-5.543v-6.6504c0-3.0603 2.4808-5.541 5.541-5.541zm0 1.6621c-2.1392 0-3.8789 1.7397-3.8789 3.8789v6.6504c0 2.1392 1.7397 3.8809 3.8789 3.8809h6.6504c2.1392 0 3.8809-1.7417 3.8809-3.8809v-6.6504c0-2.1392-1.7417-3.8789-3.8809-3.8789h-6.6504zm3.3262 2.7715c2.4484 0 4.4336 1.9852 4.4336 4.4336 0 2.4484-1.9852 4.4336-4.4336 4.4336-2.4484 0-4.4336-1.9852-4.4336-4.4336 0-2.4484 1.9852-4.4336 4.4336-4.4336zm0 1.6621c-1.5273 0-2.7715 1.243-2.7715 2.7715 0 1.5273 1.2442 2.7715 2.7715 2.7715 1.5273 0 2.7715-1.2442 2.7715-2.7715 0-1.5285-1.2442-2.7715-2.7715-2.7715z" style="fill:#fff"/>
</svg>
