<svg width="20px" height="16px" version="1.1" viewBox="0 0 20 16" xmlns="http://www.w3.org/2000/svg">
 <title>estacionamiento</title>
 <g id="02.-dashboard" fill="none" fill-rule="evenodd" style="fill:#5a5a5a">
  <g transform="translate(-893 -975)" fill="#002438" style="fill:#5a5a5a">
   <g id="estacionamiento" transform="translate(893 975)" style="fill:#5a5a5a">
    <path d="m14.986 14.709c0 0.103-0.083 0.186-0.185 0.186h-1.033c-0.102 0-0.185-0.083-0.185-0.186v-0.504h1.403v0.504zm-8.053 0c0 0.103-0.083 0.186-0.184 0.186h-1.034c-0.102 0-0.185-0.083-0.185-0.186v-0.504h1.403v0.504zm8.799-4.134c0.1 0 0.182 0.081 0.182 0.182v2.16c0 0.101-0.082 0.182-0.182 0.182h-10.948c-0.1 0-0.182-0.081-0.182-0.182v-2.16c0-0.101 0.082-0.182 0.182-0.182h10.948zm-7.549-3.153h4.15c0.324 0 0.622 0.208 0.758 0.531l0.64 1.516h-6.946l0.64-1.516c0.137-0.323 0.434-0.531 0.758-0.531zm7.549 2.047h-0.8l-0.822-1.947c-0.31-0.733-1.007-1.207-1.777-1.207h-4.15c-0.77 0-1.467 0.474-1.777 1.207l-0.821 1.947h-0.801c-0.71 0-1.288 0.578-1.288 1.288v2.16c0 0.585 0.393 1.08 0.928 1.236v0.556c0 0.712 0.579 1.291 1.291 1.291h1.034c0.711 0 1.29-0.579 1.29-1.291v-0.504h4.438v0.504c0 0.712 0.579 1.291 1.291 1.291h1.033c0.712 0 1.291-0.579 1.291-1.291v-0.556c0.536-0.156 0.928-0.651 0.928-1.236v-2.16c0-0.71-0.578-1.288-1.288-1.288z" style="fill:#5a5a5a"/>
    <path d="m14.196 12.39c0.289 0 0.566-0.254 0.553-0.553-0.013-0.3-0.243-0.552-0.553-0.552-0.289 0-0.566 0.253-0.553 0.552 0.013 0.3 0.243 0.553 0.553 0.553" style="fill:#5a5a5a"/>
    <path d="m6.3186 12.39c0.29 0 0.566-0.254 0.553-0.553-0.013-0.3-0.243-0.552-0.553-0.552-0.289 0-0.566 0.253-0.553 0.552 0.013 0.3 0.243 0.553 0.553 0.553" style="fill:#5a5a5a"/>
    <g style="fill:#5a5a5a">
     <path d="m19.198 4.1639-8.705-4.111c-0.149-0.071-0.322-0.071-0.472 0l-8.705 4.111c-0.193 0.092-0.317 0.286-0.317 0.5v10.783c0 0.306 0.248 0.553 0.553 0.553 0.306 0 0.554-0.247 0.554-0.553v-10.432l8.151-3.85 8.152 3.85v10.432c0 0.306 0.247 0.553 0.553 0.553 0.305 0 0.553-0.247 0.553-0.553v-10.783c0-0.214-0.124-0.408-0.317-0.5" style="fill:#5a5a5a"/>
    </g>
   </g>
  </g>
 </g>
</svg>
