<svg width="66" height="66" version="1.1" viewBox="0 0 17.462 17.462" xmlns="http://www.w3.org/2000/svg">
 <g transform="matrix(.35278 0 0 -.35278 -34.836 225.29)" style="fill:#002438">
  <path d="m146.05 597.67c-0.93-0.101-2.141-0.336-3.614-0.706-0.032-8e-3 -0.078-0.024-0.11-0.035l-0.315-0.118c-3.765-0.927-11.301-2.83-21.809-5.503l-0.05-0.014c-0.437-0.081-0.833-0.058-1.313 0.104l-16.661 12.055c-0.037 0.027-0.078 0.052-0.119 0.073-0.169 0.088-0.333 0.205-0.486 0.352-8e-3 9e-3 -0.017 0.017-0.026 0.026-0.389 0.383-0.603 0.889-0.603 1.423 0 1.054 0.799 1.917 1.858 2.009 0.036 3e-3 0.071 8e-3 0.106 0.015 0.183 0.039 0.363 0.049 0.601 0.014 0.085-0.015 0.168-0.03 0.235-0.05 0.088-0.027 0.179-0.065 0.291-0.122 0.058-0.029 0.117-0.06 0.173-0.097 0.011-9e-3 0.025-0.017 0.037-0.025l1.784-1.29c0.013-9e-3 0.025-0.017 0.039-0.026l10.198-6.612c0.085-0.054 0.179-0.095 0.278-0.12 0.363-0.09 0.778-0.121 1.269-0.094 0.053 2e-3 0.107 9e-3 0.159 0.022 0.463 0.108 2.645 0.679 6.479 1.693l0.191 0.049c0.791 0.23 1.592 0.443 2.399 0.637 1.324 0.351 2.315 0.613 2.521 0.669 0.071 0.018 0.14 0.047 0.205 0.082 1.171 0.645 1.897 1.87 1.897 3.195 0 1.803-1.291 3.322-3.07 3.613-0.049 7e-3 -0.098 0.011-0.148 0.011h-6.475c-0.503 0-0.912 0.409-0.912 0.912 0 0.504 0.409 0.913 0.912 0.913h6.924c0.904 0.027 2 0.04 3.348 0.04 2.724 0 4.612-1.054 6.245-2.194 0.425-0.296 0.837-0.602 1.245-0.906 1.824-1.353 3.703-2.746 6.312-3.02v-6.029l0.012-0.893c-3e-3 -0.018-5e-3 -0.036-7e-3 -0.053zm1.662 8.38c-0.172 0.237-0.446 0.377-0.739 0.377-2.502 0-4.193 1.254-6.149 2.707-0.424 0.313-0.85 0.63-1.289 0.937-1.789 1.247-4.054 2.523-7.292 2.523-1.366 0-2.479-0.014-3.376-0.04h-6.896c-1.511 0-2.74-1.23-2.74-2.742 0-1.51 1.229-2.74 2.74-2.74h6.393c0.857-0.172 1.472-0.916 1.472-1.796 0-0.626-0.329-1.209-0.865-1.543-0.349-0.092-1.244-0.331-2.378-0.631-0.814-0.196-1.642-0.415-2.432-0.644l-0.171-0.044c-4.433-1.173-5.923-1.558-6.356-1.664-0.203-7e-3 -0.374 0-0.519 0.021l-10.033 6.505-1.829 1.324c-0.035 0.024-0.071 0.046-0.108 0.066-0.091 0.057-0.187 0.11-0.288 0.16-0.196 0.101-0.383 0.178-0.585 0.24-0.144 0.042-0.3 0.076-0.482 0.105-0.45 0.068-0.82 0.054-1.199-0.019-1.984-0.198-3.4757-1.833-3.4757-3.825 0-1.017 0.3989-1.975 1.1247-2.702 0.016-0.018 0.032-0.033 0.049-0.05 0.267-0.258 0.557-0.473 0.866-0.64l16.639-12.061c0.079-0.058 0.165-0.101 0.255-0.13l0.137-0.054c0.015-6e-3 0.029-0.01 0.045-0.016 0.5-0.171 0.97-0.254 1.439-0.254 0.282 0 0.572 0.028 0.861 0.085 0.019 4e-3 0.039 9e-3 0.057 0.013l0.072 0.019c10.544 2.684 18.096 4.59 21.839 5.512 0.036 9e-3 0.07 0.019 0.104 0.032l0.327 0.122c1.818 0.454 3.21 0.693 4.03 0.693 0.504 0 0.914 0.41 0.914 0.914v0.61c9e-3 0.055 0.014 0.112 0.013 0.17l-0.013 7.764c0.043 0.243-0.015 0.495-0.162 0.696" style="fill:#002438"/>
  <path d="m115.95 623.73c0.037 0.507 0.104 1.027 0.204 1.569 1.134 6.185 6.329 10.751 12.531 11.153-0.435-6.845-5.839-12.28-12.735-12.722zm10.06-5.118c-4.041-3.412-10.058-3.38-14.082 0.207-0.044 0.038-0.089 0.076-0.134 0.113-0.028 0.023-0.057 0.047-0.08 0.067-0.046 0.044-0.093 0.086-0.141 0.129-0.035 0.031-0.073 0.062-0.136 0.125-0.087 0.09-0.168 0.184-0.25 0.277l-0.142 0.161c-3.59 4.029-3.616 10.058-0.188 14.103 3.302-3.679 3.68-9.171 0.844-13.28-0.25-0.364-0.205-0.854 0.106-1.165 0.313-0.313 0.802-0.357 1.166-0.107 4.027 2.777 9.377 2.471 13.037-0.63zm4.531 18.758-1e-3 0.047c-0.012 0.477-0.39 0.864-0.866 0.889l-0.048 3e-3c-0.016 1e-3 -0.031 1e-3 -0.047 1e-3 -6.389 0-11.992-3.9-14.327-9.621-0.419 2.513-1.594 4.913-3.506 6.826-0.066 0.064-0.133 0.125-0.201 0.183-0.029 0.026-0.059 0.051-0.087 0.078-0.339 0.317-0.878 0.318-1.233 0.019-0.021-0.017-0.04-0.034-0.058-0.054-4.708-4.708-4.921-12.292-0.485-17.267l0.034-0.038-5.561-5.561 0.952-0.952 5.565 5.564 0.04-0.033c2.393-2.134 5.389-3.191 8.378-3.191 3.225 0 6.442 1.231 8.884 3.673 5e-3 5e-3 0.037 0.039 0.043 0.045 0.324 0.341 0.309 0.903 1e-3 1.258-0.014 0.016-0.029 0.032-0.044 0.047-2.056 2.057-4.675 3.264-7.395 3.591 5.862 2.211 9.963 7.84 9.962 14.493" style="fill:#002438"/>
 </g>
</svg>
