<?xml version="1.0" encoding="UTF-8"?>
<svg width="16px" height="16px" viewBox="0 0 16 16" version="1.1" xmlns="http://www.w3.org/2000/svg" xmlns:xlink="http://www.w3.org/1999/xlink">
    <title>balcon</title>
    <g id="02.-dashboard" stroke="none" stroke-width="1" fill="none" fill-rule="evenodd">
        <g id="28" transform="translate(-897.000000, -861.000000)" fill="#002438" fill-rule="nonzero">
            <g id="balcon" transform="translate(897.000000, 861.000000)">
                <path d="M13.5,9.125 L13.5,5.5 C13.5,2.46728516 11.0327148,0 8,0 C4.96728516,0 2.5,2.46728516 2.5,5.5 L2.5,9.125 L0,9.125 L0,14.125 C0,15.1589356 0.841064438,16 1.875,16 L14.125,16 C15.1589356,16 16,15.1589356 16,14.125 L16,9.125 L13.5,9.125 Z M6.1875,10.375 L7.375,10.375 L7.375,14.75 L6.1875,14.75 L6.1875,10.375 Z M4.9375,14.75 L3.75,14.75 L3.75,10.375 L4.9375,10.375 L4.9375,14.75 Z M8.625,10.375 L9.8125,10.375 L9.8125,14.75 L8.625,14.75 L8.625,10.375 Z M11.0625,10.375 L12.25,10.375 L12.25,14.75 L11.0625,14.75 L11.0625,10.375 Z M8.625,9.125 L8.625,6.3125 L12.25,6.3125 L12.25,9.125 L8.625,9.125 Z M12.2275391,5.0625 L8.625,5.0625 L8.625,1.2960205 C10.53125,1.57824706 12.0291748,3.13061525 12.2275391,5.0625 Z M7.375,1.2960205 L7.375,5.0625 L3.77246094,5.0625 C3.97082519,3.13061525 5.46875,1.57824706 7.375,1.2960205 Z M3.75,6.3125 L7.375,6.3125 L7.375,9.125 L3.75,9.125 L3.75,6.3125 Z M1.25,14.125 L1.25,10.375 L2.5,10.375 L2.5,14.75 L1.875,14.75 C1.5303955,14.75 1.25,14.4696045 1.25,14.125 Z M14.75,14.125 C14.75,14.4696045 14.4696045,14.75 14.125,14.75 L13.5,14.75 L13.5,10.375 L14.75,10.375 L14.75,14.125 Z" id="Shape"></path>
            </g>
        </g>
    </g>
</svg>