<?xml version="1.0" encoding="UTF-8"?>
<svg width="30px" height="30px" viewBox="0 0 30 30" version="1.1" xmlns="http://www.w3.org/2000/svg" xmlns:xlink="http://www.w3.org/1999/xlink">
    <title>001-parliament</title>
    <g id="02.-dashboard" stroke="none" stroke-width="1" fill="none" fill-rule="evenodd">
        <g id="20" transform="translate(-829.000000, -1672.000000)" fill="#002438" fill-rule="nonzero">
            <g id="001-parliament" transform="translate(829.000000, 1672.000000)">
                <path d="M29.1210938,18.8280487 L22.4688721,18.8280487 L22.4688721,15 C22.4688721,14.5145416 22.0751953,14.1210937 21.5899658,14.1210937 L21.5272522,14.1210937 L21.5272522,11.234436 C21.5272522,10.7489777 21.1338043,10.3555298 20.648346,10.3555298 L20.51651,10.3555298 C20.1393128,7.97790527 18.2565308,6.09512332 15.8789062,5.71769713 L15.8789062,0.87890625 C15.8789062,0.393447891 15.4854584,-2.84217094e-14 15,-2.84217094e-14 C14.5145416,-2.84217094e-14 14.1210938,0.393447891 14.1210938,0.87890625 L14.1210938,5.71792605 C11.7434692,6.09512332 9.86068723,7.97790527 9.48348996,10.3555298 L9.35165402,10.3555298 C8.86619566,10.3555298 8.47274777,10.7489777 8.47274777,11.234436 L8.47274777,14.1210937 L8.41003418,14.1210937 C7.92480469,14.1210937 7.53112793,14.5145416 7.53112793,15 L7.53112793,18.8280487 L0.87890625,18.8280487 C0.393447891,18.8280487 0,19.2217254 0,19.7069549 L0,29.1210937 C0,29.6065521 0.393447891,30 0.87890625,30 L29.1210938,30 C29.6065521,30 30,29.6065521 30,29.1210937 L30,19.7069549 C30,19.2217254 29.6065521,18.8280487 29.1210938,18.8280487 Z M9.28894043,15.8789062 L20.7110596,15.8789062 L20.7110596,18.8280487 L9.28894043,18.8280487 L9.28894043,15.8789062 Z M9.28894043,20.5858612 L11.9242859,20.5858612 L11.9242859,28.2421875 L9.28894043,28.2421875 L9.28894043,20.5858612 Z M13.6820984,20.5858612 L16.3174438,20.5858612 L16.3174438,28.2421875 L13.6820984,28.2421875 L13.6820984,20.5858612 Z M18.0752563,20.5858612 L20.7108307,20.5858612 L20.7108307,28.2421875 L18.0752563,28.2421875 L18.0752563,20.5858612 Z M15,7.40615848 C16.8083954,7.40615848 18.3281708,8.66683957 18.7264252,10.3555298 L11.2735748,10.3555298 C11.6718292,8.66683957 13.1916046,7.40615848 15,7.40615848 Z M10.2305603,12.1133423 L19.7694397,12.1133423 L19.7694397,14.1210937 L10.2305603,14.1210937 L10.2305603,12.1133423 Z M1.7578125,20.5858612 L7.53112793,20.5858612 L7.53112793,28.2421875 L1.7578125,28.2421875 L1.7578125,20.5858612 Z M28.2421875,28.2421875 L22.4688721,28.2421875 L22.4688721,20.5858612 L28.2421875,20.5858612 L28.2421875,28.2421875 Z" id="Shape"></path>
                <path d="M4.64447021,22.5938415 C4.15924072,22.5938415 3.76556396,22.9872894 3.76556396,23.4727478 L3.76556396,25.3555298 C3.76556396,25.8407593 4.15924072,26.234436 4.64447021,26.234436 C5.12992857,26.234436 5.52337646,25.8407593 5.52337646,25.3555298 L5.52337646,23.4727478 C5.52337646,22.9872894 5.12992857,22.5938415 4.64447021,22.5938415 Z" id="Path"></path>
                <path d="M25.3555298,26.234436 C25.8407593,26.234436 26.234436,25.8407593 26.234436,25.3555298 L26.234436,23.4727478 C26.234436,22.9872894 25.8407593,22.5938415 25.3555298,22.5938415 C24.8700714,22.5938415 24.4766235,22.9872894 24.4766235,23.4727478 L24.4766235,25.3555298 C24.4766235,25.8409881 24.8700714,26.234436 25.3555298,26.234436 Z" id="Path"></path>
            </g>
        </g>
    </g>
</svg>