<?xml version="1.0" encoding="UTF-8"?>
<svg width="18px" height="16px" viewBox="0 0 18 16" version="1.1" xmlns="http://www.w3.org/2000/svg" xmlns:xlink="http://www.w3.org/1999/xlink">
    <title>baño</title>
    <g id="02.-dashboard" stroke="none" stroke-width="1" fill="none" fill-rule="evenodd">
        <g id="28" transform="translate(-604.000000, -1053.000000)" fill="#002438">
            <g id="baño" transform="translate(604.000000, 1053.000000)">
                <path d="M1.006,8.531 L16.161,8.531 L16.161,7.495 L1.006,7.495 L1.006,8.531 Z M5.623,6.471 C5.623,5.906 6.083,5.446 6.648,5.446 C6.789,5.446 6.926,5.474 7.055,5.53 L7.428,5.691 L7.664,5.361 C7.857,5.092 8.168,4.931 8.498,4.931 C8.584,4.931 8.669,4.942 8.752,4.963 L9.191,5.074 L9.348,4.648 C9.564,4.06 10.129,3.666 10.756,3.666 C11.182,3.666 11.589,3.848 11.874,4.167 L12.153,4.479 L12.511,4.261 C12.821,4.071 13.179,3.971 13.544,3.971 C14.639,3.971 15.53,4.861 15.53,5.956 C15.53,6.139 15.505,6.317 15.458,6.489 L5.624,6.489 C5.624,6.483 5.623,6.477 5.623,6.471 L5.623,6.471 Z M15.559,10.59 C15.559,12.268 14.198,13.63 12.519,13.63 L4.648,13.63 C2.968,13.63 1.607,12.268 1.607,10.59 L1.607,9.538 L1.608,9.538 L15.559,9.538 L15.559,9.538 L15.559,10.59 Z M17.167,6.49 L16.488,6.49 C16.52,6.315 16.536,6.137 16.536,5.956 C16.536,4.306 15.194,2.965 13.544,2.965 C13.126,2.965 12.713,3.053 12.335,3.221 C11.891,2.86 11.334,2.66 10.756,2.66 C9.849,2.66 9.018,3.155 8.578,3.927 C8.551,3.926 8.524,3.926 8.498,3.926 C7.972,3.926 7.469,4.132 7.094,4.489 C6.642,4.388 6.154,4.443 5.668,4.664 C4.983,4.974 4.601,5.72 4.617,6.472 L4.618,6.49 L0.001,6.49 L0,6.49 L0,9.537 L0.602,9.537 L0.602,10.59 C0.602,12.252 1.609,13.682 3.045,14.305 L3.045,14.994 L2.173,14.994 L2.173,16 L4.051,16 L4.051,14.592 C4.246,14.62 4.444,14.636 4.647,14.636 L12.52,14.636 C12.722,14.636 12.921,14.62 13.115,14.592 L13.115,16 L14.994,16 L14.994,14.994 L14.121,14.994 L14.121,14.305 C15.557,13.682 16.565,12.252 16.565,10.59 L16.565,9.537 L17.167,9.537 L17.167,6.49 Z" id="Fill-1"></path>
                <path d="M5.8536,1.0057 C6.1456,1.0057 6.3826,1.2427 6.3826,1.5347 C6.3826,1.8257 6.1456,2.0637 5.8536,2.0637 C5.5616,2.0637 5.3246,1.8257 5.3246,1.5347 C5.3246,1.2427 5.5616,1.0057 5.8536,1.0057 M5.8536,3.0687 C6.6996,3.0687 7.3886,2.3807 7.3886,1.5347 C7.3886,0.6887 6.6996,-0.0003 5.8536,-0.0003 C5.0076,-0.0003 4.3186,0.6887 4.3186,1.5347 C4.3186,2.3807 5.0076,3.0687 5.8536,3.0687" id="Fill-3"></path>
            </g>
        </g>
    </g>
</svg>