<?xml version="1.0" encoding="UTF-8"?>
<svg width="18px" height="18px" viewBox="0 0 18 18" version="1.1" xmlns="http://www.w3.org/2000/svg" xmlns:xlink="http://www.w3.org/1999/xlink">
    <title>construida</title>
    <g id="02.-dashboard" stroke="none" stroke-width="1" fill="none" fill-rule="evenodd">
        <g id="28" transform="translate(-609.000000, -937.000000)" fill="#002438" fill-rule="nonzero">
            <g id="construida" transform="translate(609.000000, 937.000000)">
                <path d="M17.1353672,0.865652344 C15.9812578,-0.288457031 14.1130898,-0.288667969 12.9587695,0.865652344 C12.6613477,1.16303906 12.8832187,0.866496094 9.54305859,5.96851172 C9.38594531,6.20465625 9.42162891,6.52011328 9.62033203,6.71565234 L10.0351758,7.13049609 L9.00298828,8.16268359 L6.07939453,5.23905469 C5.8595625,5.01855469 5.49987891,5.00909766 5.26848047,5.21602734 C1.79388281,8.31673828 -0.123714844,12.7648828 0.00727734375,17.4198867 C0.0161015625,17.7330586 0.267925781,17.984918 0.5810625,17.9936719 C5.24576953,18.1244883 9.69008203,16.200457 12.7849219,12.7324336 C12.9874922,12.5058867 12.9873867,12.1470117 12.7618945,11.9215195 L9.83833594,8.99789063 L10.8705586,7.96570313 L11.2881797,8.38332422 C11.4837188,8.57886328 11.7955195,8.61465234 12.0324727,8.45782031 C17.1082617,5.13488672 16.8364687,5.34107813 17.1353672,5.04210938 C18.2868398,3.89070703 18.2868398,2.017125 17.1353672,0.865652344 Z M11.5244648,12.35475 C8.81005078,15.1737891 5.09603906,16.7768438 1.18311328,16.8178711 C1.22435156,12.9052617 2.82737109,9.19082813 5.64623438,6.47651953 L8.16767578,8.99796094 L6.91470703,10.2509297 C6.68404687,10.4815547 6.68404687,10.8555469 6.91470703,11.0862422 C7.14529688,11.3168672 7.51932422,11.3169375 7.75001953,11.0862422 L9.00298828,9.83327344 L11.5244648,12.35475 Z M11.7839531,7.20864844 C11.7839531,7.20864844 10.7960625,6.22075781 10.7923359,6.21703125 L11.4533086,5.20737891 L12.7936055,6.54767578 L11.7839531,7.20864844 Z M16.2999844,4.2069375 C16.123957,4.38289453 16.2243633,4.30164844 13.8032578,5.88666797 L12.1143164,4.19772656 C13.6966641,1.78069922 13.6169297,1.87815234 13.7941172,1.70096484 C14.4865898,1.00849219 15.6074766,1.00842188 16.3000195,1.70096484 C16.9924922,2.39347266 16.992668,3.51421875 16.2999844,4.2069375 Z" id="Shape"></path>
            </g>
        </g>
    </g>
</svg>