<svg width="19" height="20" viewBox="0 0 19 20" fill="none" xmlns="http://www.w3.org/2000/svg">
<path d="M18.7891 0.210575C18.5079 -0.0701917 18.053 -0.0701917 17.7719 0.210575L14.4395 3.54328C13.7526 3.06124 12.9378 2.79855 12.081 2.79855C10.9803 2.79855 9.94581 3.2271 9.16819 4.00545L7.13706 6.03586C7.00191 6.17064 6.92639 6.35348 6.92639 6.54391C6.92639 6.73434 7.00191 6.9179 7.13706 7.05269L11.9459 11.8619C12.0868 12.0024 12.2704 12.0722 12.4546 12.0722C12.6386 12.0722 12.8229 12.0024 12.9631 11.8619L14.9942 9.83145C16.4259 8.39871 16.5769 6.16702 15.4549 4.56156L18.7891 1.22741C19.0702 0.94664 19.0702 0.491342 18.7891 0.210575ZM13.9774 8.81426L12.4546 10.3359L8.66267 6.54391L10.1857 5.02228C10.6916 4.51567 11.3652 4.23671 12.081 4.23671C12.7972 4.23671 13.4708 4.51603 13.9774 5.02228C15.022 6.06838 15.022 7.76852 13.9774 8.81426Z" fill="#002438"/>
<path d="M0.210814 18.8616C0.491941 19.1423 0.946878 19.1423 1.22801 18.8616L4.56035 15.5289C5.24727 16.0109 6.06211 16.2736 6.91887 16.2736C8.01953 16.2736 9.05407 15.845 9.83169 15.0667L11.8628 13.0363C11.998 12.9015 12.0735 12.7187 12.0735 12.5282C12.0735 12.3378 11.998 12.1542 11.8628 12.0195L7.05401 7.21028C6.91309 7.06972 6.72952 6.99998 6.54523 6.99998C6.36131 6.99998 6.17702 7.06972 6.03682 7.21028L4.00568 9.24069C2.57403 10.6734 2.42298 12.9051 3.54497 14.5106L0.210814 17.8447C-0.0703143 18.1255 -0.0703144 18.5808 0.210814 18.8616ZM5.02252 10.2579L6.54523 8.73625L10.3372 12.5282L8.81413 14.0499C8.30825 14.5565 7.6347 14.8354 6.91887 14.8354C6.20268 14.8354 5.52912 14.5561 5.02252 14.0499C3.97786 13.0038 3.97786 11.3036 5.02252 10.2579Z" fill="#002438"/>
</svg>
