<svg width="22" height="22" viewBox="0 0 22 22" fill="none" xmlns="http://www.w3.org/2000/svg">
<path d="M21.7891 0.210575C21.5079 -0.0701917 21.053 -0.0701917 20.7719 0.210575L17.4395 3.54328C16.7526 3.06124 15.9378 2.79855 15.081 2.79855C13.9803 2.79855 12.9458 3.2271 12.1682 4.00545L10.1371 6.03586C10.0019 6.17064 9.92639 6.35348 9.92639 6.54391C9.92639 6.73434 10.0019 6.9179 10.1371 7.05269L14.9459 11.8619C15.0868 12.0024 15.2704 12.0722 15.4546 12.0722C15.6386 12.0722 15.8229 12.0024 15.9631 11.8619L17.9942 9.83145C19.4259 8.39871 19.5769 6.16702 18.4549 4.56156L21.7891 1.22741C22.0702 0.94664 22.0702 0.491342 21.7891 0.210575ZM16.9774 8.81426L15.4546 10.3359L11.6627 6.54391L13.1857 5.02228C13.6916 4.51567 14.3652 4.23671 15.081 4.23671C15.7972 4.23671 16.4708 4.51603 16.9774 5.02228C18.022 6.06838 18.022 7.76852 16.9774 8.81426Z" fill="#DC314F"/>
<path d="M11.438 11.8048L9.86541 13.3774L8.62202 12.1343L10.1942 10.5621C10.4754 10.2814 10.4754 9.82606 10.1942 9.54529C9.91347 9.26453 9.45854 9.26453 9.17741 9.54529L7.60519 11.1175L6.83913 10.3515C6.55836 10.0707 6.10307 10.0707 5.8223 10.3515L3.79189 12.3819C2.35951 13.8146 2.2081 16.0463 3.33081 17.6521L0.210575 20.772C-0.0701917 21.0528 -0.0701917 21.5081 0.210575 21.7888C0.351139 21.9294 0.535065 21.9998 0.718991 21.9998C0.903278 21.9998 1.0872 21.9294 1.22777 21.7888L4.34692 18.67C5.03348 19.1521 5.84795 19.4148 6.70471 19.4148C7.80501 19.4148 8.83919 18.9862 9.61789 18.2079L11.6483 16.1775C11.9291 15.8967 11.9291 15.4414 11.6483 15.1606L10.883 14.3949L12.4556 12.8223C12.7363 12.5416 12.7363 12.0863 12.4556 11.8055C12.1748 11.5248 11.7188 11.5237 11.438 11.8048ZM8.60034 17.1903C8.09373 17.6962 7.42018 17.9759 6.70435 17.9759C5.98852 17.9759 5.31497 17.6966 4.80836 17.1903C3.76298 16.1449 3.76298 14.4441 4.80836 13.3983L6.32999 11.8767L10.122 15.6687L8.60034 17.1903Z" fill="#DC314F"/>
</svg>
