<?xml version="1.0" encoding="UTF-8"?>
<svg width="22px" height="22px" viewBox="0 0 22 22" version="1.1" xmlns="http://www.w3.org/2000/svg" xmlns:xlink="http://www.w3.org/1999/xlink">
    <title>pisos</title>
    <g id="02.-dashboard" stroke="none" stroke-width="1" fill="none" fill-rule="evenodd">
        <g id="28" transform="translate(-893.000000, -933.000000)" fill="#002438" fill-rule="nonzero" stroke="#002438" stroke-width="0.5">
            <g id="pisos" transform="translate(894.000000, 934.000000)">
                <path d="M19.5453021,5.82222222 L16.634308,5.82222222 L16.634308,1.21469786 L17.2889669,0.756452242 C17.4766082,0.624873294 17.522885,0.365769981 17.3904873,0.177348928 C17.2589084,-0.0110721248 16.9998051,-0.0565692008 16.811384,0.07582846 L0.177231969,11.7197271 C-0.0104093567,11.851306 -0.0566861598,12.1104094 0.075711501,12.2988304 C0.156101365,12.414152 0.285263158,12.4759064 0.416023392,12.4759064 C0.498869396,12.4759064 0.5817154,12.45154 0.654814815,12.4003509 L2.49528265,11.1120078 L2.49528265,15.802729 L1.2477193,15.802729 C1.01785575,15.802729 0.831851852,15.9887329 0.831851852,16.2185965 C0.831851852,16.44846 1.01785575,16.6344639 1.2477193,16.6344639 L1.66358674,16.6344639 L1.66358674,19.5454581 C1.66358674,19.7753216 1.84959064,19.9613255 2.07945419,19.9613255 L19.5453411,19.9613255 C19.7752047,19.9613255 19.9612086,19.7753216 19.9612086,19.5454581 L19.9612086,6.23808967 C19.9612086,6.00822612 19.7751657,5.82222222 19.5453021,5.82222222 Z M3.32697856,10.5298246 L15.8026121,1.79688109 L15.8026121,5.82222222 L14.5550487,5.82222222 C14.3251852,5.82222222 14.1391813,6.00822612 14.1391813,6.23808967 C14.1391813,6.46795322 14.3251852,6.65395712 14.5550487,6.65395712 L14.9709162,6.65395712 L14.9709162,8.31738791 L11.2282261,8.31738791 C10.9983626,8.31738791 10.8123587,8.50339181 10.8123587,8.73325536 C10.8123587,8.96311891 10.9983626,9.14912281 11.2282261,9.14912281 L11.6440936,9.14912281 L11.6440936,10.8125536 L7.90140351,10.8125536 C7.67153996,10.8125536 7.48553606,10.9985575 7.48553606,11.2284211 C7.48553606,11.4582846 7.67153996,11.6442885 7.90140351,11.6442885 L8.31727096,11.6442885 L8.31727096,13.3077193 L4.5745809,13.3077193 C4.34471735,13.3077193 4.15871345,13.4937232 4.15871345,13.7235867 C4.15871345,13.9534503 4.34471735,14.1394542 4.5745809,14.1394542 L4.99044834,14.1394542 L4.99044834,15.802885 L3.32697856,15.802885 L3.32697856,10.5298246 Z M19.1295517,19.1295906 L2.49528265,19.1295906 L2.49528265,16.6344639 L5.4062768,16.6344639 C5.63614035,16.6344639 5.82214425,16.44846 5.82214425,16.2185965 L5.82214425,14.1393372 L8.7331384,14.1393372 C8.96300195,14.1393372 9.14900585,13.9533333 9.14900585,13.7234698 L9.14900585,11.6442105 L12.06,11.6442105 C12.2898635,11.6442105 12.4758674,11.4582066 12.4758674,11.2283431 L12.4758674,9.14908382 L15.3868616,9.14908382 C15.6167251,9.14908382 15.802729,8.96307992 15.802729,8.73321637 L15.802729,6.65395712 L19.1295517,6.65395712 L19.1295517,19.1295906 L19.1295517,19.1295906 Z" id="Shape"></path>
            </g>
        </g>
    </g>
</svg>