<?xml version="1.0" encoding="UTF-8"?>
<svg width="20px" height="22px" viewBox="0 0 20 22" version="1.1" xmlns="http://www.w3.org/2000/svg" xmlns:xlink="http://www.w3.org/1999/xlink">
    <title>calefaccion</title>
    <g id="02.-dashboard" stroke="none" stroke-width="1" fill="none" fill-rule="evenodd">
        <g id="28" transform="translate(-894.000000, -1044.000000)" fill="#002438" fill-rule="nonzero" stroke="#002438" stroke-width="0.5">
            <g id="calefaccion" transform="translate(895.000000, 1045.000000)">
                <path d="M6.1344766,2.78039062 C5.79868085,2.08789062 5.53396596,1.54121094 6.1181234,0.647070312 C6.24312766,0.455390625 6.19165532,0.197070312 6.00457021,0.0695703125 C5.81909362,-0.057109375 5.56418298,-0.00625 5.43837447,0.185390625 C4.59195319,1.47871094 5.04130213,2.40539062 5.40241277,3.14957031 C5.73985532,3.84625 5.98411915,4.34957031 5.43837447,5.18539062 C5.31256596,5.37707031 5.3640383,5.63539063 5.5511234,5.76289062 C5.62055745,5.81039062 5.69983404,5.83289062 5.77826809,5.83289062 C5.90982128,5.83289062 6.03888511,5.76789062 6.11731915,5.64707031 C6.92536596,4.41207031 6.48742979,3.50707031 6.1344766,2.78039062 Z" id="Path"></path>
                <path d="M9.38948936,2.78039062 C9.05288936,2.08789062 8.78817447,1.54121094 9.37233191,0.647070312 C9.49733617,0.455390625 9.44586383,0.197070312 9.25877872,0.0695703125 C9.07330213,-0.057109375 8.81758723,-0.00625 8.69258298,0.185390625 C7.84696596,1.47957031 8.29631489,2.40621094 8.65662128,3.15039062 C8.99406383,3.84707031 9.23832766,4.35039063 8.69258298,5.18539062 C8.56757872,5.37707031 8.61905106,5.63539063 8.80613617,5.76289062 C8.87557021,5.81039062 8.95400426,5.83289062 9.0324383,5.83289062 C9.16399149,5.83289062 9.29305532,5.76789062 9.37233191,5.64707031 C10.1803787,4.41207031 9.74244255,3.50707031 9.38948936,2.78039062 Z" id="Path"></path>
                <path d="M12.6436979,2.78039062 C12.3070979,2.08789062 12.042383,1.54121094 12.6265404,0.647070312 C12.7515447,0.455390625 12.7000723,0.197070312 12.5129872,0.0695703125 C12.3275106,-0.057109375 12.0717957,-0.00625 11.9467915,0.185390625 C11.1011745,1.47957031 11.5505234,2.40621094 11.9108298,3.15039062 C12.2482723,3.84707031 12.4925362,4.35039063 11.9467915,5.18539062 C11.8217872,5.37707031 11.8732596,5.63539063 12.0603447,5.76289062 C12.1297787,5.81039062 12.2082128,5.83289062 12.2866468,5.83289062 C12.4190043,5.83289062 12.5481064,5.76789062 12.6265404,5.64707031 C13.4345872,4.41207031 12.9966511,3.50707031 12.6436979,2.78039062 Z" id="Path"></path>
                <path d="M15.9444766,6.66621094 L2.05510213,6.66621094 C0.928417021,6.66621094 0.0125617021,7.60121094 0.0125617021,8.74953125 L0.0125617021,16.2495312 C0.0125617021,17.3978516 0.928455319,18.3328516 2.05510213,18.3328516 L15.9444766,18.3328516 C17.0711617,18.3328516 17.987017,17.3978516 17.987017,16.2495313 L17.987017,8.74953125 C17.987017,7.60121094 17.0711234,6.66621094 15.9444766,6.66621094 Z M17.1700085,16.2495703 C17.1700085,16.93875 16.620166,17.4995703 15.9444766,17.4995703 L2.05510213,17.4995703 C1.37941277,17.4995703 0.829570213,16.93875 0.829570213,16.2495703 L0.829570213,8.74957031 C0.829570213,8.06039063 1.37941277,7.49957031 2.05510213,7.49957031 L15.9444766,7.49957031 C16.620166,7.49957031 17.1700085,8.06039063 17.1700085,8.74957031 L17.1700085,16.2495703 Z" id="Shape"></path>
                <path d="M2.87211064,8.33289063 C2.64661277,8.33289063 2.46358723,8.51957031 2.46358723,8.74957031 L2.46358723,16.2495703 C2.46358723,16.4795703 2.64661277,16.66625 2.87211064,16.66625 C3.09760851,16.66625 3.28063404,16.4795703 3.28063404,16.2495703 L3.28063404,8.74957031 C3.28063404,8.51957031 3.09760851,8.33289063 2.87211064,8.33289063 Z" id="Path"></path>
                <path d="M5.32317447,8.33289063 C5.0976766,8.33289063 4.91465106,8.51957031 4.91465106,8.74957031 L4.91465106,16.2495703 C4.91465106,16.4795703 5.0976766,16.66625 5.32317447,16.66625 C5.54867234,16.66625 5.73169787,16.4795703 5.73169787,16.2495703 L5.73169787,8.74957031 C5.73169787,8.51957031 5.54867234,8.33289063 5.32317447,8.33289063 Z" id="Path"></path>
                <path d="M7.7742383,8.33289063 C7.54874043,8.33289063 7.36571489,8.51957031 7.36571489,8.74957031 L7.36571489,16.2495703 C7.36571489,16.4795703 7.54874043,16.66625 7.7742383,16.66625 C7.99973617,16.66625 8.1827617,16.4795703 8.1827617,16.2495703 L8.1827617,8.74957031 C8.1827617,8.51957031 7.99973617,8.33289063 7.7742383,8.33289063 Z" id="Path"></path>
                <path d="M10.2253021,8.33289063 C9.99980426,8.33289063 9.81677872,8.51957031 9.81677872,8.74957031 L9.81677872,16.2495703 C9.81677872,16.4795703 9.99980426,16.66625 10.2253021,16.66625 C10.4508,16.66625 10.6338255,16.4795703 10.6338255,16.2495703 L10.6338255,8.74957031 C10.6338255,8.51957031 10.4508,8.33289063 10.2253021,8.33289063 Z" id="Path"></path>
                <path d="M12.676366,8.33289063 C12.4508681,8.33289063 12.2678426,8.51957031 12.2678426,8.74957031 L12.2678426,16.2495703 C12.2678426,16.4795703 12.4508681,16.66625 12.676366,16.66625 C12.9018638,16.66625 13.0848894,16.4795703 13.0848894,16.2495703 L13.0848894,8.74957031 C13.0848894,8.51957031 12.9018638,8.33289063 12.676366,8.33289063 Z" id="Path"></path>
                <path d="M15.1274298,8.33289063 C14.9019319,8.33289063 14.7189064,8.51957031 14.7189064,8.74957031 L14.7189064,16.2495703 C14.7189064,16.4795703 14.9019319,16.66625 15.1274298,16.66625 C15.3529277,16.66625 15.5359532,16.4795703 15.5359532,16.2495703 L15.5359532,8.74957031 C15.5359532,8.51957031 15.3529277,8.33289063 15.1274298,8.33289063 Z" id="Path"></path>
                <path d="M3.68915745,17.4995703 C3.46365957,17.4995703 3.28063404,17.68625 3.28063404,17.91625 L3.28063404,19.5829297 C3.28063404,19.8129297 3.46365957,19.9996094 3.68915745,19.9996094 C3.91465532,19.9996094 4.09768085,19.8129297 4.09768085,19.5829297 L4.09768085,17.91625 C4.09764255,17.6862109 3.91465532,17.4995703 3.68915745,17.4995703 Z" id="Path"></path>
                <path d="M14.3104213,17.4995703 C14.0849234,17.4995703 13.9018979,17.68625 13.9018979,17.91625 L13.9018979,19.5829297 C13.9018979,19.8129297 14.0849234,19.9996094 14.3104213,19.9996094 C14.5359191,19.9996094 14.7189447,19.8129297 14.7189447,19.5829297 L14.7189447,17.91625 C14.7189447,17.6862109 14.5359191,17.4995703 14.3104213,17.4995703 Z" id="Path"></path>
            </g>
        </g>
    </g>
</svg>