<?xml version="1.0" encoding="UTF-8"?>
<svg width="22px" height="18px" viewBox="0 0 22 18" version="1.1" xmlns="http://www.w3.org/2000/svg" xmlns:xlink="http://www.w3.org/1999/xlink">
    <title>casa</title>
    <g id="02.-dashboard" stroke="none" stroke-width="1" fill="none" fill-rule="evenodd">
        <g id="28" transform="translate(-607.000000, -860.000000)" fill="#002438" fill-rule="nonzero">
            <g id="casa" transform="translate(607.000000, 860.000000)">
                <path d="M18.3968791,5.94971163 L18.3968791,1.43539535 L14.6635953,1.43539535 L14.6635953,3.07774884 L10.7162372,0.0411069767 L0,8.2849814 L2.24514419,11.2034093 L3.34444186,10.3577442 L3.34444186,17.958893 L18.0882419,17.958893 L18.0882419,10.3577442 L19.1875395,11.2034093 L21.4325581,8.28502326 L18.3968791,5.94971163 Z M16.8309209,16.701614 L4.60167907,16.701614 L4.60167907,9.39051628 L10.7162791,4.68690698 L16.8309209,9.39051628 L16.8309209,16.701614 L16.8309209,16.701614 Z M18.9575581,9.44028837 L10.7162791,3.10035349 L2.475,9.44028837 L1.76312093,8.51492093 L10.7162791,1.62736744 L15.9209163,5.63123721 L15.9209163,2.69267442 L17.1396419,2.69267442 L17.1396419,6.56878605 L19.6693953,8.51492093 L18.9575581,9.44028837 Z" id="Shape"></path>
                <path d="M7.15851628,8.50575349 L7.15851628,15.6212791 L14.274,15.6212791 L14.274,8.50575349 L7.15851628,8.50575349 Z M10.0876605,14.3640419 L8.41579535,14.3640419 L8.41579535,12.6398093 L10.0876605,12.6398093 L10.0876605,14.3640419 Z M10.0876605,11.3825302 L8.41579535,11.3825302 L8.41579535,9.76307442 L10.0876605,9.76307442 L10.0876605,11.3825302 Z M11.3448977,9.76307442 L13.0167628,9.76307442 L13.0167628,11.3825302 L11.3448977,11.3825302 L11.3448977,9.76307442 Z M13.0168047,14.364 L11.3449395,14.364 L11.3449395,12.6397674 L13.0168047,12.6397674 L13.0168047,14.364 Z" id="Shape"></path>
            </g>
        </g>
    </g>
</svg>