<?xml version="1.0" encoding="UTF-8"?>
<svg width="32px" height="30px" viewBox="0 0 32 30" version="1.1" xmlns="http://www.w3.org/2000/svg" xmlns:xlink="http://www.w3.org/1999/xlink">
    <title>002-scale</title>
    <g id="02.-dashboard" stroke="none" stroke-width="1" fill="none" fill-rule="evenodd">
        <g id="20" transform="translate(-490.000000, -1832.000000)" fill="#002438" fill-rule="nonzero">
            <g id="002-scale" transform="translate(490.000000, 1832.000000)">
                <path d="M31.2160366,14.3143902 C31.2152439,14.3039634 31.214939,14.2934146 31.2138415,14.2830488 C31.2120732,14.2673171 31.2092073,14.2515854 31.2066463,14.2358537 C31.2041463,14.2204268 31.2019512,14.204939 31.1987195,14.1897561 C31.1964634,14.1792683 31.1932927,14.1688415 31.1906098,14.1583537 C31.1855488,14.1384146 31.1804878,14.1185976 31.1741463,14.0992073 C31.1735366,14.0972561 31.1731707,14.0953049 31.1725,14.0933537 L27.4987195,3.0720122 C27.3742073,2.69853659 27.0246951,2.44664634 26.6310366,2.44664634 L18.8356098,2.44664634 C18.4364024,1.04073171 17.1418902,0.00762195122 15.6097561,0.00762195122 C14.077622,0.00762195122 12.7831707,1.04073171 12.3839024,2.44664634 L4.58841463,2.44664634 C4.1947561,2.44664634 3.8452439,2.69853659 3.72073171,3.0720122 L0.0469512195,14.0933537 C0.0462804878,14.0953049 0.0459756098,14.0972561 0.045304878,14.0992073 C0.0390243902,14.1185976 0.033902439,14.1384146 0.0288414634,14.1583537 C0.0261585366,14.1688415 0.0230487805,14.1792683 0.0207926829,14.1897561 C0.0175609756,14.204939 0.0153658537,14.2204268 0.0128658537,14.2358537 C0.010304878,14.2515854 0.00737804878,14.2673171 0.00567073171,14.2830488 C0.00457317073,14.2934146 0.00426829268,14.3039634 0.00347560976,14.3143902 C0.0018902439,14.3352439 0.000487804878,14.3560366 0,14.3767073 C0,14.3786585 0,14.3806098 0,14.382561 C0,16.912622 2.05835366,18.9709756 4.58841463,18.9709756 C7.11847561,18.9709756 9.17682927,16.912622 9.17682927,14.382561 C9.17682927,14.3806098 9.17652439,14.3786585 9.17652439,14.3767073 C9.17640244,14.3559756 9.17493902,14.3351829 9.17335366,14.3143902 C9.17256098,14.3039634 9.1722561,14.2934146 9.17115854,14.2830488 C9.16939024,14.2673171 9.16652439,14.2515854 9.16396341,14.2358537 C9.16146341,14.2204268 9.15926829,14.204939 9.15603659,14.1897561 C9.15378049,14.1792683 9.15060976,14.1688415 9.1479878,14.1583537 C9.14292683,14.1384146 9.13786585,14.1185976 9.13152439,14.0992073 C9.13091463,14.0972561 9.13054878,14.0953049 9.12987805,14.0933537 L5.85743902,4.27591463 L12.3839024,4.27591463 C12.7004878,5.39085366 13.5801829,6.2704878 14.695122,6.58713415 L14.695122,20.8155488 L10.1885366,20.8155488 C9.8675,20.8155488 9.57,20.9838415 9.40463415,21.2589634 L7.41487805,24.5690854 C5.28835366,24.9679268 3.67378049,26.8372561 3.67378049,29.0777439 C3.67378049,29.5828659 4.08329268,29.992378 4.58841463,29.992378 L26.6310976,29.992378 C27.1362195,29.992378 27.5457317,29.5828659 27.5457317,29.0777439 C27.5457317,26.7459146 25.7968902,24.8162195 23.5421951,24.5279268 L21.9409756,21.3215854 C21.7860976,21.0115244 21.4693293,20.8156098 21.1226829,20.8156098 L16.5243902,20.8156098 L16.5243902,6.58713415 C17.6393293,6.27054878 18.5189634,5.39085366 18.8356098,4.27591463 L25.3620732,4.27591463 L22.0896341,14.0933537 C22.0889634,14.0953049 22.0886585,14.0972561 22.0879878,14.0992073 C22.0816463,14.1185976 22.0765854,14.1384146 22.0715244,14.1583537 C22.0688415,14.1688415 22.0657317,14.1792683 22.0634146,14.1897561 C22.0601829,14.204939 22.0579878,14.2204268 22.0554878,14.2358537 C22.0529268,14.2515854 22.05,14.2673171 22.0482927,14.2830488 C22.0471951,14.2934146 22.0468902,14.3039634 22.0460976,14.3143902 C22.0445122,14.3352439 22.0430488,14.3560366 22.0429268,14.3767073 C22.0429268,14.3786585 22.042622,14.3806098 22.042622,14.382561 C22.042622,16.912622 24.1009756,18.9709756 26.6310366,18.9709756 C29.1610976,18.9709756 31.2195122,16.9126829 31.2195122,14.382622 C31.2195122,14.3806707 31.2195122,14.3787195 31.2195122,14.3767683 C31.2190854,14.3560366 31.217622,14.3352439 31.2160366,14.3143902 Z M29.0358537,13.4679878 L24.2262805,13.4679878 L26.6310366,6.25359756 L29.0358537,13.4679878 Z M17.1341463,3.36128049 C17.1341463,4.20182927 16.4503049,4.88567073 15.6097561,4.88567073 C14.7692073,4.88567073 14.0853659,4.20182927 14.0853659,3.36128049 C14.0853659,2.52073171 14.7692073,1.83689024 15.6097561,1.83689024 C16.4503049,1.83689024 17.1341463,2.52073171 17.1341463,3.36128049 Z M4.58841463,6.25359756 L6.99317073,13.4679878 L2.18365854,13.4679878 L4.58841463,6.25359756 Z M4.58841463,17.1417683 C3.3875,17.1417683 2.36323171,16.3704878 1.98506098,15.2972561 L7.19182927,15.2972561 C6.81359756,16.3704878 5.78932927,17.1417683 4.58841463,17.1417683 Z M5.65890244,28.1631098 C6.0370122,27.089878 7.06128049,26.3185976 8.26219512,26.3185976 L22.9573171,26.3185976 C24.1582317,26.3185976 25.1825,27.089878 25.5606098,28.1631098 L5.65890244,28.1631098 Z M9.59713415,24.4893293 L10.7059146,22.6448171 L20.5571341,22.6448171 L21.4782317,24.4893293 L9.59713415,24.4893293 Z M26.6310976,17.1417683 C25.4301829,17.1417683 24.4059146,16.3704878 24.0277439,15.2972561 L29.2345122,15.2972561 C28.8562805,16.3704878 27.8320122,17.1417683 26.6310976,17.1417683 Z" id="Shape"></path>
            </g>
        </g>
    </g>
</svg>