<?xml version="1.0" encoding="UTF-8"?>
<svg width="20px" height="16px" viewBox="0 0 20 16" version="1.1" xmlns="http://www.w3.org/2000/svg" xmlns:xlink="http://www.w3.org/1999/xlink">
    <title>estacionamiento</title>
    <g id="02.-dashboard" stroke="none" stroke-width="1" fill="none" fill-rule="evenodd">
        <g id="28" transform="translate(-893.000000, -975.000000)" fill="#002438">
            <g id="estacionamiento" transform="translate(893.000000, 975.000000)">
                <path d="M14.9856,14.7088 C14.9856,14.8118 14.9026,14.8948 14.8006,14.8948 L13.7676,14.8948 C13.6656,14.8948 13.5826,14.8118 13.5826,14.7088 L13.5826,14.2048 L14.9856,14.2048 L14.9856,14.7088 Z M6.9326,14.7088 C6.9326,14.8118 6.8496,14.8948 6.7486,14.8948 L5.7146,14.8948 C5.6126,14.8948 5.5296,14.8118 5.5296,14.7088 L5.5296,14.2048 L6.9326,14.2048 L6.9326,14.7088 Z M15.7316,10.5748 C15.8316,10.5748 15.9136,10.6558 15.9136,10.7568 L15.9136,12.9168 C15.9136,13.0178 15.8316,13.0988 15.7316,13.0988 L4.7836,13.0988 C4.6836,13.0988 4.6016,13.0178 4.6016,12.9168 L4.6016,10.7568 C4.6016,10.6558 4.6836,10.5748 4.7836,10.5748 L15.7316,10.5748 Z M8.1826,7.4218 L12.3326,7.4218 C12.6566,7.4218 12.9546,7.6298 13.0906,7.9528 L13.7306,9.4688 L6.7846,9.4688 L7.4246,7.9528 C7.5616,7.6298 7.8586,7.4218 8.1826,7.4218 L8.1826,7.4218 Z M15.7316,9.4688 L14.9316,9.4688 L14.1096,7.5218 C13.7996,6.7888 13.1026,6.3148 12.3326,6.3148 L8.1826,6.3148 C7.4126,6.3148 6.7156,6.7888 6.4056,7.5218 L5.5846,9.4688 L4.7836,9.4688 C4.0736,9.4688 3.4956,10.0468 3.4956,10.7568 L3.4956,12.9168 C3.4956,13.5018 3.8886,13.9968 4.4236,14.1528 L4.4236,14.7088 C4.4236,15.4208 5.0026,15.9998 5.7146,15.9998 L6.7486,15.9998 C7.4596,15.9998 8.0386,15.4208 8.0386,14.7088 L8.0386,14.2048 L12.4766,14.2048 L12.4766,14.7088 C12.4766,15.4208 13.0556,15.9998 13.7676,15.9998 L14.8006,15.9998 C15.5126,15.9998 16.0916,15.4208 16.0916,14.7088 L16.0916,14.1528 C16.6276,13.9968 17.0196,13.5018 17.0196,12.9168 L17.0196,10.7568 C17.0196,10.0468 16.4416,9.4688 15.7316,9.4688 L15.7316,9.4688 Z" id="Fill-1"></path>
                <path d="M14.1965,12.3895 C14.4855,12.3895 14.7625,12.1355 14.7495,11.8365 C14.7365,11.5365 14.5065,11.2845 14.1965,11.2845 C13.9075,11.2845 13.6305,11.5375 13.6435,11.8365 C13.6565,12.1365 13.8865,12.3895 14.1965,12.3895" id="Fill-3"></path>
                <path d="M6.3186,12.3895 C6.6086,12.3895 6.8846,12.1355 6.8716,11.8365 C6.8586,11.5365 6.6286,11.2845 6.3186,11.2845 C6.0296,11.2845 5.7526,11.5375 5.7656,11.8365 C5.7786,12.1365 6.0086,12.3895 6.3186,12.3895" id="Fill-5"></path>
                <g id="Group-9">
                    <path d="M19.1985,4.1639 L10.4935,0.0529 C10.3445,-0.0181 10.1715,-0.0181 10.0215,0.0529 L1.3165,4.1639 C1.1235,4.2559 0.9995,4.4499 0.9995,4.6639 L0.9995,15.4469 C0.9995,15.7529 1.2475,15.9999 1.5525,15.9999 C1.8585,15.9999 2.1065,15.7529 2.1065,15.4469 L2.1065,5.0149 L10.2575,1.1649 L18.4095,5.0149 L18.4095,15.4469 C18.4095,15.7529 18.6565,15.9999 18.9625,15.9999 C19.2675,15.9999 19.5155,15.7529 19.5155,15.4469 L19.5155,4.6639 C19.5155,4.4499 19.3915,4.2559 19.1985,4.1639" id="Fill-7"></path>
                </g>
            </g>
        </g>
    </g>
</svg>