<?xml version="1.0" encoding="UTF-8"?>
<svg width="20px" height="20px" viewBox="0 0 20 20" version="1.1" xmlns="http://www.w3.org/2000/svg" xmlns:xlink="http://www.w3.org/1999/xlink">
    <title>precio</title>
    <g id="02.-dashboard" stroke="none" stroke-width="1" fill="none" fill-rule="evenodd">
        <g id="28" transform="translate(-607.000000, -899.000000)" fill="#002438" fill-rule="nonzero" stroke="#002438" stroke-width="0.5">
            <g id="precio" transform="translate(608.000000, 900.000000)">
                <path d="M15.3639844,2.63601563 C13.6641094,0.936140625 11.4039844,0 9,0 C6.59601562,0 4.33589062,0.936140625 2.63601563,2.63601563 C0.936175781,4.33589062 0,6.59601562 0,9 C0,11.4039844 0.936175781,13.6641094 2.63601563,15.3639844 C4.33589062,17.0638594 6.59601562,18 9,18 C11.4039844,18 13.6641094,17.0638594 15.3639844,15.3639844 C17.0638242,13.6641094 18,11.4039844 18,9 C18,6.59601562 17.0638242,4.33589062 15.3639844,2.63601563 Z M9,16.9453125 C4.61893359,16.9453125 1.0546875,13.3810664 1.0546875,9 C1.0546875,4.61893359 4.61893359,1.0546875 9,1.0546875 C13.3810664,1.0546875 16.9453125,4.61893359 16.9453125,9 C16.9453125,13.3810664 13.3810664,16.9453125 9,16.9453125 Z" id="Shape"></path>
                <path d="M9.56485547,8.47265625 L8.43514453,8.47265625 C7.79153906,8.47265625 7.26795703,7.94907422 7.26795703,7.30550391 C7.26795703,6.66189844 7.79157422,6.13831641 8.43514453,6.13831641 L10.6945313,6.13831641 C10.9857656,6.13831641 11.221875,5.90220703 11.221875,5.61097266 C11.221875,5.31973828 10.9857656,5.08362891 10.6945313,5.08362891 L9.52734375,5.08362891 L9.52734375,3.91644141 C9.52734375,3.62520703 9.29123438,3.38909766 9,3.38909766 C8.70876562,3.38909766 8.47265625,3.62520703 8.47265625,3.91644141 L8.47265625,5.08362891 L8.43517969,5.08362891 C7.21001953,5.08362891 6.21330469,6.08037891 6.21330469,7.30550391 C6.21330469,8.53062891 7.21005469,9.52734375 8.43517969,9.52734375 L9.56489063,9.52734375 C10.2084609,9.52734375 10.732043,10.0509609 10.732043,10.6945312 C10.732043,11.3381016 10.2084609,11.8617187 9.56489063,11.8617187 L7.30550391,11.8617187 C7.01426953,11.8617187 6.77816016,12.0978281 6.77816016,12.3890625 C6.77816016,12.6802969 7.01426953,12.9164062 7.30550391,12.9164062 L8.47265625,12.9164062 L8.47265625,14.0836289 C8.47265625,14.3748633 8.70876562,14.6109727 9,14.6109727 C9.29123438,14.6109727 9.52734375,14.3748633 9.52734375,14.0836289 L9.52734375,12.9164062 L9.56485547,12.9164062 C10.7899805,12.9164062 11.7866953,11.9196562 11.7866953,10.6945312 C11.7866953,9.46940625 10.7899805,8.47265625 9.56485547,8.47265625 Z" id="Path"></path>
            </g>
        </g>
    </g>
</svg>