<svg width="18" height="16" viewBox="0 0 18 16" fill="none" xmlns="http://www.w3.org/2000/svg">
<path fill-rule="evenodd" clip-rule="evenodd" d="M13.9878 1.98563L12.3011 4.90692C11.4294 6.41692 9.14632 5.09889 10.0181 3.58889L11.7047 0.667595C12.5765 -0.842403 14.8595 0.475629 13.9878 1.98563ZM16.6924 9.3063H13.3191C11.5756 9.3063 11.5756 6.67023 13.3191 6.67023H16.6924C18.4359 6.67023 18.4359 9.3063 16.6924 9.3063ZM11.7047 15.3089L10.0181 12.3879C9.14632 10.8776 11.4291 9.55961 12.3011 11.0699L13.9875 13.9909C14.8595 15.5012 12.5765 16.8192 11.7047 15.3089ZM4.01248 13.9909L5.69886 11.0699C6.57087 9.55961 8.85368 10.8776 7.98191 12.3879L6.29529 15.3089C5.42353 16.8192 3.14047 15.5009 4.01248 13.9909ZM1.30764 6.67023H4.6809C6.42442 6.67023 6.42442 9.3063 4.6809 9.3063H1.30764C-0.435881 9.3063 -0.435881 6.67023 1.30764 6.67023ZM6.29529 0.667595L7.98191 3.58864C8.85368 5.09889 6.57087 6.41692 5.69886 4.90692L4.01248 1.98563C3.14047 0.475382 5.42353 -0.842403 6.29529 0.667595Z" fill="white"/>
</svg>
