<?xml version="1.0" encoding="UTF-8"?>
<svg width="23px" height="18px" viewBox="0 0 23 18" version="1.1" xmlns="http://www.w3.org/2000/svg" xmlns:xlink="http://www.w3.org/1999/xlink">
    <title>habitacion</title>
    <g id="02.-dashboard" stroke="none" stroke-width="1" fill="none" fill-rule="evenodd">
        <g id="28" transform="translate(-894.000000, -899.000000)" fill="#002438">
            <g id="habitacion" transform="translate(894.000000, 899.000000)">
                <path d="M21.6973,12.3437 L0.9913,12.3437 L0.9913,9.9897 C0.9913,9.2117 1.6243,8.5787 2.4033,8.5787 L5.4903,8.5787 L8.9913,8.5787 L13.6973,8.5787 L17.1973,8.5787 L20.2853,8.5787 C21.0633,8.5787 21.6973,9.2117 21.6973,9.9897 L21.6973,12.3437 Z M21.6973,14.2257 L0.9913,14.2257 L0.9913,13.2847 L21.6973,13.2847 L21.6973,14.2257 Z M9.4613,5.2837 L9.4613,7.1657 C9.4613,7.4257 9.2503,7.6367 8.9903,7.6367 L5.4893,7.6367 C5.3443,7.6367 5.2083,7.5717 5.1193,7.4557 C5.0303,7.3407 4.9973,7.1937 5.0333,7.0527 L5.5043,5.1697 C5.5573,4.9607 5.7453,4.8147 5.9603,4.8137 L8.9903,4.8137 C9.2503,4.8137 9.4613,5.0247 9.4613,5.2837 L9.4613,5.2837 Z M17.5683,7.4567 C17.4783,7.5727 17.3433,7.6377 17.1973,7.6377 L13.6973,7.6377 C13.4373,7.6377 13.2263,7.4267 13.2263,7.1667 L13.2263,5.2847 C13.2263,5.0257 13.4373,4.8147 13.6973,4.8147 L16.7263,4.8147 C16.9433,4.8147 17.1303,4.9607 17.1833,5.1707 L17.6543,7.0527 C17.6893,7.1947 17.6583,7.3417 17.5683,7.4567 L17.5683,7.4567 Z M2.8733,3.4027 C2.8733,2.6237 3.5073,1.9897 4.2853,1.9897 L18.4033,1.9897 C19.1813,1.9897 19.8143,2.6237 19.8143,3.4027 L19.8143,7.6377 L18.5193,7.6377 C18.6123,7.3787 18.6353,7.0997 18.5673,6.8237 L18.0963,4.9427 C17.9393,4.3127 17.3753,3.8727 16.7263,3.8727 L13.6973,3.8727 C12.9183,3.8727 12.2853,4.5067 12.2853,5.2847 L12.2853,7.1667 C12.2853,7.3327 12.3193,7.4897 12.3723,7.6377 L10.3163,7.6377 C10.3693,7.4897 10.4033,7.3327 10.4033,7.1667 L10.4033,5.2847 C10.4033,4.5067 9.7693,3.8727 8.9913,3.8727 L5.9613,3.8727 C5.3133,3.8727 4.7493,4.3137 4.5923,4.9427 L4.1213,6.8237 C4.0523,7.0997 4.0763,7.3787 4.1683,7.6377 L2.8733,7.6377 L2.8733,3.4027 Z M20.7563,7.6857 L20.7563,3.4027 C20.7563,2.1057 19.6993,1.0497 18.4033,1.0497 L4.2853,1.0497 C2.9883,1.0497 1.9323,2.1057 1.9323,3.4027 L1.9323,7.6857 C0.8603,7.9047 0.0503,8.8547 0.0503,9.9897 L0.0503,12.8147 L0.0503,14.6967 L0.0503,16.5787 C0.0503,16.8387 0.2603,17.0497 0.5203,17.0497 C0.7803,17.0497 0.9913,16.8387 0.9913,16.5787 L0.9913,15.1667 L21.6973,15.1667 L21.6973,16.5787 C21.6973,16.8387 21.9073,17.0497 22.1673,17.0497 C22.4273,17.0497 22.6383,16.8387 22.6383,16.5787 L22.6383,14.6967 L22.6383,12.8147 L22.6383,9.9897 C22.6383,8.8547 21.8273,7.9047 20.7563,7.6857 L20.7563,7.6857 Z" id="Fill-1"></path>
                <g id="Group-5" transform="translate(0.000000, 0.099600)">
                    <path d="M5.9604,4.7637 C5.7684,4.7647 5.6004,4.8957 5.5524,5.0827 L5.0824,6.9647 C5.0494,7.0907 5.0784,7.2217 5.1584,7.3267 C5.2384,7.4287 5.3584,7.4877 5.4894,7.4877 L8.9904,7.4877 C9.2224,7.4877 9.4114,7.2987 9.4114,7.0667 L9.4114,5.1847 C9.4114,4.9517 9.2224,4.7637 8.9904,4.7637 L5.9604,4.7637 Z M8.9904,7.5867 L5.4894,7.5867 C5.3274,7.5867 5.1784,7.5147 5.0794,7.3867 C4.9804,7.2587 4.9454,7.0957 4.9854,6.9407 L5.4554,5.0587 C5.5144,4.8267 5.7224,4.6647 5.9604,4.6637 L8.9904,4.6637 C9.2774,4.6637 9.5104,4.8977 9.5104,5.1847 L9.5104,7.0667 C9.5104,7.3537 9.2774,7.5867 8.9904,7.5867 L8.9904,7.5867 Z M13.6964,4.7647 C13.4644,4.7647 13.2764,4.9527 13.2764,5.1857 L13.2764,7.0677 C13.2764,7.2997 13.4644,7.4887 13.6964,7.4887 L17.1974,7.4887 C17.3284,7.4887 17.4484,7.4297 17.5284,7.3267 L17.5284,7.3267 C17.6094,7.2237 17.6374,7.0917 17.6054,6.9657 L17.1344,5.0827 C17.0874,4.8957 16.9194,4.7647 16.7264,4.7647 L13.6964,4.7647 Z M17.1974,7.5877 L13.6964,7.5877 C13.4104,7.5877 13.1764,7.3547 13.1764,7.0677 L13.1764,5.1857 C13.1764,4.8987 13.4104,4.6647 13.6964,4.6647 L16.7264,4.6647 C16.9654,4.6647 17.1734,4.8267 17.2314,5.0597 L17.7024,6.9417 C17.7414,7.0977 17.7074,7.2607 17.6074,7.3877 C17.5084,7.5157 17.3594,7.5877 17.1974,7.5877 L17.1974,7.5877 Z M18.5884,7.4887 L19.7644,7.4887 L19.7644,3.3027 C19.7644,2.5517 19.1534,1.9407 18.4024,1.9407 L4.2854,1.9407 C3.5344,1.9407 2.9234,2.5517 2.9234,3.3027 L2.9234,7.4887 L4.0994,7.4887 C4.0194,7.2297 4.0104,6.9627 4.0734,6.7127 L4.5434,4.8307 C4.7064,4.1787 5.2894,3.7237 5.9614,3.7237 L8.9914,3.7237 C9.7974,3.7237 10.4524,4.3787 10.4524,5.1857 L10.4524,7.0677 C10.4524,7.2057 10.4304,7.3447 10.3854,7.4887 L12.3024,7.4887 C12.2574,7.3437 12.2354,7.2047 12.2354,7.0677 L12.2354,5.1857 C12.2354,4.3787 12.8904,3.7237 13.6964,3.7237 L16.7264,3.7237 C17.3984,3.7237 17.9814,4.1787 18.1444,4.8307 L18.6154,6.7127 C18.6774,6.9627 18.6684,7.2297 18.5884,7.4887 L18.5884,7.4887 Z M19.8644,7.5877 L18.4484,7.5877 L18.4724,7.5217 C18.5654,7.2607 18.5814,6.9897 18.5184,6.7367 L18.0474,4.8547 C17.8964,4.2477 17.3534,3.8237 16.7264,3.8237 L13.6964,3.8237 C12.9454,3.8237 12.3354,4.4347 12.3354,5.1857 L12.3354,7.0677 C12.3354,7.2147 12.3624,7.3637 12.4184,7.5217 L12.4424,7.5877 L10.2454,7.5877 L10.2694,7.5217 C10.3254,7.3647 10.3534,7.2157 10.3534,7.0677 L10.3534,5.1857 C10.3534,4.4347 9.7424,3.8237 8.9914,3.8237 L5.9614,3.8237 C5.3354,3.8237 4.7924,4.2477 4.6404,4.8547 L4.1694,6.7367 C4.1064,6.9897 4.1224,7.2607 4.2154,7.5217 L4.2394,7.5877 L2.8234,7.5877 L2.8234,3.3027 C2.8234,2.4957 3.4794,1.8407 4.2854,1.8407 L18.4024,1.8407 C19.2094,1.8407 19.8644,2.4957 19.8644,3.3027 L19.8644,7.5877 Z M1.0414,12.1947 L21.6474,12.1947 L21.6474,9.8907 C21.6474,9.1397 21.0364,8.5297 20.2854,8.5297 L2.4024,8.5297 C1.6514,8.5297 1.0414,9.1397 1.0414,9.8907 L1.0414,12.1947 Z M21.7474,12.2937 L0.9414,12.2937 L0.9414,9.8907 C0.9414,9.0847 1.5964,8.4297 2.4024,8.4297 L20.2854,8.4297 C21.0914,8.4297 21.7474,9.0847 21.7474,9.8907 L21.7474,12.2937 Z M1.0414,14.0767 L21.6474,14.0767 L21.6474,13.2357 L1.0414,13.2357 L1.0414,14.0767 Z M21.6974,14.1757 L0.9414,14.1757 L0.9414,13.1357 L21.7464,13.1357 L21.7464,14.1257 L21.6974,14.1257 L21.6974,14.1757 Z M0.9414,15.0177 L21.7474,15.0177 L21.7474,16.4797 C21.7474,16.7117 21.9354,16.9007 22.1674,16.9007 C22.3994,16.9007 22.5884,16.7117 22.5884,16.4797 L22.5884,9.8907 C22.5884,8.8017 21.8134,7.8527 20.7464,7.6347 L20.7064,7.6267 L20.7064,3.3027 C20.7064,2.0337 19.6724,0.9997 18.4024,0.9997 L4.2854,0.9997 C3.0154,0.9997 1.9814,2.0337 1.9814,3.3027 L1.9814,7.6267 L1.9414,7.6347 C0.8744,7.8527 0.0994,8.8017 0.0994,9.8907 L0.0994,16.4797 C0.0994,16.7117 0.2884,16.9007 0.5204,16.9007 C0.7524,16.9007 0.9414,16.7117 0.9414,16.4797 L0.9414,15.0177 Z M22.1674,16.9997 C21.8804,16.9997 21.6474,16.7667 21.6474,16.4797 L21.6474,15.1177 L1.0414,15.1177 L1.0414,16.4797 C1.0414,16.7667 0.8074,16.9997 0.5204,16.9997 C0.2334,16.9997 0.0004,16.7667 0.0004,16.4797 L0.0004,9.8907 C0.0004,8.7677 0.7894,7.7877 1.8824,7.5457 L1.8824,3.3027 C1.8824,1.9777 2.9604,0.9007 4.2854,0.9007 L18.4024,0.9007 C19.7284,0.9007 20.8054,1.9777 20.8054,3.3027 L20.8054,7.5457 C21.8984,7.7877 22.6884,8.7677 22.6884,9.8907 L22.6884,16.4797 C22.6884,16.7667 22.4544,16.9997 22.1674,16.9997 L22.1674,16.9997 Z" id="Fill-3"></path>
                </g>
            </g>
        </g>
    </g>
</svg>