<?xml version="1.0" encoding="UTF-8"?>
<svg width="20px" height="20px" viewBox="0 0 20 20" version="1.1" xmlns="http://www.w3.org/2000/svg" xmlns:xlink="http://www.w3.org/1999/xlink">
    <title>venta - arriendo</title>
    <g id="02.-dashboard" stroke="none" stroke-width="1" fill="none" fill-rule="evenodd">
        <g id="28" transform="translate(-602.000000, -1090.000000)" fill="#002438" fill-rule="nonzero">
            <g id="venta---arriendo" transform="translate(602.000000, 1090.000000)">
                <path d="M17.8448486,0 L13.2170105,0 C12.2010803,0 10.8424377,0.562744141 10.1242066,1.28112793 L0.629272461,10.7759094 C0.223388672,11.1816406 -5.68434189e-14,11.7227173 -5.68434189e-14,12.2996521 C-5.68434189e-14,12.8765869 0.22354125,13.4176636 0.629272461,13.8233948 L6.17645266,19.3707275 C6.58218383,19.7764587 7.12326051,20 7.70019531,20 C8.27697754,20 8.8182068,19.7764587 9.22409059,19.3707275 L18.7188721,9.87579344 C19.4372559,9.15756227 20,7.79891969 20,6.78298949 L20,2.15484617 C20,0.966644297 19.0330505,0 17.8448486,0 Z M18.828125,6.78298949 C18.828125,7.48962402 18.3898926,8.54766844 17.8903198,9.04724121 L8.39538574,18.5420227 C8.21090699,18.7265015 7.96401977,18.828125 7.70019531,18.828125 C7.43637086,18.828125 7.18963625,18.7265015 7.00515746,18.5421753 L1.4579773,12.9946899 C1.27349852,12.8102112 1.171875,12.563324 1.171875,12.2996521 C1.171875,12.0358277 1.27334594,11.7889404 1.45782469,11.6046143 L10.9527588,2.10968016 C11.4523316,1.61010742 12.510376,1.171875 13.2170105,1.171875 L17.8448486,1.171875 C18.3869934,1.171875 18.828125,1.61285398 18.828125,2.15484617 L18.828125,6.78298949 Z" id="Shape"></path>
                <path d="M15.2214355,3.14056398 C14.8265136,3.14056398 14.4394043,3.30072018 14.160498,3.57962638 C13.8815917,3.85853268 13.7214355,4.24564208 13.7214355,4.64056398 C13.7214355,5.03587638 13.8815917,5.42181398 14.160498,5.70072018 C14.4394043,5.98079828 14.8265136,6.14056398 15.2214355,6.14056398 C15.6163574,6.14056398 16.0022949,5.98079828 16.2815917,5.70072018 C16.5612793,5.42181398 16.7214355,5.03470458 16.7214355,4.64056398 C16.7214355,4.24564208 16.5612793,3.85853268 16.2815917,3.57962638 C16.0022949,3.30072018 15.6163574,3.14056398 15.2214355,3.14056398 Z" id="Path"></path>
            </g>
        </g>
    </g>
</svg>