<?xml version="1.0" encoding="UTF-8"?>
<svg width="24px" height="24px" viewBox="0 0 24 24" version="1.1" xmlns="http://www.w3.org/2000/svg" xmlns:xlink="http://www.w3.org/1999/xlink">
    <title>gasto comun</title>
    <g id="02.-dashboard" stroke="none" stroke-width="1" fill="none" fill-rule="evenodd">
        <g id="28" transform="translate(-891.000000, -1003.000000)" fill="#002438" fill-rule="nonzero" stroke="#002438" stroke-width="0.5">
            <g id="gasto-comun" transform="translate(892.000000, 1004.000000)">
                <path d="M10.1317291,14.9215698 C10.2994079,14.7535553 10.2994079,14.4816437 10.1317291,14.3136292 C9.96388246,14.1461182 9.69197084,14.1461182 9.52395632,14.3136292 C9.35644531,14.4816437 9.35644531,14.7535553 9.52395632,14.9215698 C9.69197084,15.0890808 9.96388246,15.0890808 10.1317291,14.9215698 Z" id="Path"></path>
                <path d="M8.09742738,4.72521973 C8.09742738,7.33070375 10.2171631,9.45060729 12.8226471,9.45060729 C15.4281311,9.45060729 17.5478668,7.33070375 17.5478668,4.72521973 C17.5478668,2.11973571 15.4281311,0 12.8226471,0 C10.2171631,0 8.09742738,2.11973571 8.09742738,4.72521973 Z M16.6888275,4.72521973 C16.6888275,6.85704039 14.9544678,8.59140012 12.8226471,8.59140012 C10.6908264,8.59140012 8.95646666,6.85704039 8.95646666,4.72521973 C8.95646666,2.59356689 10.6908264,0.859207164 12.8226471,0.859207164 C14.9544678,0.859207164 16.6888275,2.59356689 16.6888275,4.72521973 Z" id="Shape"></path>
                <path d="M4.96943666,21.8729401 C5.13594056,22.0407868 5.40701296,22.0426331 5.57569886,21.8764648 L7.65834046,19.824707 C8.01216127,19.4708862 8.11975098,18.9470368 7.96415709,18.4916687 L8.41213991,18.0596313 C8.65333558,17.8266602 8.9709015,17.6982575 9.30659486,17.6982575 L15.0172425,17.6982575 C16.030365,17.6982575 16.9879303,17.3091888 17.7138672,16.6027222 C17.7437439,16.5736847 17.4871063,16.8759766 21.6097565,11.9486694 C22.2212219,11.2252503 22.1297455,10.1389466 21.4056549,9.5268097 C20.6860962,8.92037962 19.6081848,9.00749205 18.9950409,9.71849059 L16.4602203,12.3238068 C16.1401367,11.9298706 15.6520386,11.6843109 15.1246643,11.6843109 L10.3344879,11.6843109 C9.65286257,11.3991394 8.9296112,11.2547913 8.18336488,11.2547913 C6.1148224,11.2547913 4.30862429,12.2101745 3.3393097,14.0014343 C2.93093874,13.924057 2.50024414,14.0475922 2.19039915,14.3574371 L0.146865855,16.407013 C-0.0199737656,16.5743561 -0.0203094375,16.8450928 0.146194469,17.0129395 L4.96943666,21.8729401 Z M8.183197,12.1138306 C8.84115598,12.1138306 9.47729492,12.2462616 10.0743256,12.507431 C10.1287079,12.5312653 10.1872864,12.5435181 10.2465363,12.5435181 L15.1246643,12.5435181 C15.5904388,12.5435181 15.9838714,12.9233551 15.9838714,13.4025574 C15.9838714,13.8763885 15.5984955,14.2617645 15.1246643,14.2617645 L11.6198578,14.2617645 C11.3826904,14.2617645 11.1903382,14.4541168 11.1903382,14.6912842 C11.1903382,14.9286194 11.3826904,15.1208038 11.6198578,15.1208038 L15.1246643,15.1208038 C16.0721588,15.1208038 16.8429108,14.3500519 16.8429108,13.4025574 C16.8429108,13.3270264 16.8375397,13.2521667 16.8278046,13.1779785 C19.2798767,10.6574249 19.6256409,10.3032684 19.6404114,10.2856445 C19.9465637,9.92427064 20.4900513,9.87844851 20.851593,10.1832581 C21.2134704,10.4892425 21.2592926,11.0323944 20.952301,11.3957825 L17.0993805,16.0018311 C16.5367584,16.5419616 15.7980652,16.8392181 15.0172425,16.8392181 L9.30659486,16.8392181 C8.74699401,16.8392181 8.21726989,17.0532227 7.81544496,17.441452 L7.45037842,17.7937622 L4.08505247,14.4286041 C4.87158203,12.953064 6.34745788,12.1138306 8.183197,12.1138306 L8.183197,12.1138306 Z M2.79833984,14.9645386 C2.94000244,14.822876 3.15753174,14.7973633 3.33024596,14.9041138 C3.40460205,14.9494324 3.19110107,14.7550659 7.05090332,18.6094971 C7.22261048,18.7812042 7.21337891,19.0547943 7.0532532,19.2149201 L5.277771,20.9640503 L1.05693053,16.7109833 L2.79833984,14.9645386 Z" id="Shape"></path>
                <path d="M12.3071899,2.14793395 L12.3071899,2.65130615 C11.8071747,2.82855225 11.4479828,3.30607604 11.4479828,3.8661804 C11.4479828,4.57667543 12.0260467,5.15490723 12.7367096,5.15490723 C12.9735413,5.15490723 13.1662292,5.34759521 13.1662292,5.58442689 C13.1662292,5.82125852 12.9735413,6.01394655 12.7367096,6.01394655 C12.5532532,6.01394655 12.3550262,5.89863588 12.1789551,5.68899538 C12.0262146,5.50738525 11.7553101,5.48405455 11.5736999,5.63662722 C11.3920898,5.78936768 11.3685913,6.0602722 11.5213318,6.24188232 C11.750946,6.51496888 12.0210114,6.705307 12.3071899,6.8013153 L12.3071899,7.30267334 C12.3071899,7.54000852 12.4995423,7.732193 12.7367096,7.732193 C12.973877,7.732193 13.1662292,7.54000852 13.1662292,7.30267334 L13.1662292,6.79930114 C13.6662445,6.62188721 14.0254364,6.14436341 14.0254364,5.58442689 C14.0254364,4.87376403 13.4473724,4.29570006 12.7367096,4.29570006 C12.4998779,4.29570006 12.3071899,4.10301207 12.3071899,3.8661804 C12.3071899,3.62934877 12.4998779,3.4364929 12.7367096,3.4364929 C12.8889466,3.4364929 13.0495758,3.51420592 13.2013092,3.66107178 C13.3718414,3.82606507 13.6437531,3.8215332 13.8087464,3.65116881 C13.9737396,3.48063659 13.9692077,3.20872496 13.7988434,3.04373171 C13.5808105,2.8327484 13.3626099,2.71340945 13.1662292,2.64828489 L13.1662292,2.14793395 C13.1662292,1.91059877 12.973877,1.71824645 12.7367096,1.71824645 C12.4995423,1.71824645 12.3071899,1.91059877 12.3071899,2.14793395 L12.3071899,2.14793395 Z" id="Path"></path>
            </g>
        </g>
    </g>
</svg>