<?xml version="1.0" encoding="UTF-8"?>
<svg width="20px" height="18px" viewBox="0 0 20 18" version="1.1" xmlns="http://www.w3.org/2000/svg" xmlns:xlink="http://www.w3.org/1999/xlink">
    <title>superficie</title>
    <g id="02.-dashboard" stroke="none" stroke-width="1" fill="none" fill-rule="evenodd">
        <g id="28" transform="translate(-608.000000, -974.000000)" fill="#002438" fill-rule="nonzero">
            <g id="superficie" transform="translate(608.000000, 974.000000)">
                <path d="M19.1203693,8.42851867 L16.2597884,6.92671369 L19.1170456,5.07316183 L9.56016598,0.0121742739 L0.00328630705,5.07316183 L2.86054357,6.92671369 L0,8.42851867 L2.86054357,10.2841992 L0,11.7860041 L9.56016598,17.9879004 L19.1203693,11.7860041 L16.2598257,10.2841992 L19.1203693,8.42851867 Z M16.9100664,5.17081743 L15.0137925,6.4010166 L13.3547676,5.3740083 L15.1275436,4.22690041 L16.9100664,5.17081743 Z M8.53009544,7.16284232 L6.90341079,8.21543154 L5.05075519,7.01357676 L6.7246805,5.9946722 L8.53009544,7.16284232 Z M7.78619502,5.34846473 L9.50108714,4.30461411 L11.2623237,5.39488382 L9.56016598,6.4963195 L7.78619502,5.34846473 Z M9.56016598,7.82936515 L11.1881577,8.88277593 L9.56016598,9.93887552 L7.93217427,8.88277593 L9.56016598,7.82936515 Z M10.5902739,7.16280498 L12.315249,6.0466556 L13.9756183,7.07448548 L12.2169585,8.21535685 L10.5902739,7.16280498 Z M13.9946266,3.62692531 L12.3018797,4.72219917 L10.5731328,3.65202075 L12.1870083,2.669639 L13.9946266,3.62692531 Z M9.56016598,1.27852282 L11.0360539,2.06010373 L9.50605394,2.99139834 L8.03976349,2.08366805 L9.56016598,1.27852282 Z M6.89381328,2.69062656 L8.43397095,3.64402905 L6.74286722,4.6733527 L5.12566805,3.62692531 L6.89381328,2.69062656 Z M2.21022822,5.17081743 L3.99271369,4.22686307 L5.68131535,5.31944813 L4.00877178,6.33753112 L2.21022822,5.17081743 Z M2.21351452,8.53046888 L3.93748133,7.6253527 L9.56016598,11.2729295 L15.182888,7.6253527 L16.9068548,8.53046888 L9.56016598,13.2963983 L2.21351452,8.53046888 Z M16.9068174,11.8879544 L9.56016598,16.6538838 L2.21351452,11.8879544 L3.93748133,10.9828382 L9.56016598,14.6304149 L15.182888,10.9828382 L16.9068174,11.8879544 Z" id="Shape"></path>
            </g>
        </g>
    </g>
</svg>